<svg width="147" height="150" viewBox="0 0 147 150" fill="none" xmlns="http://www.w3.org/2000/svg">
<path d="M130.148 83.0668L134.848 82.9719L137.164 82.9346C137.935 82.9176 138.699 82.9346 139.47 82.9142L139.312 83.0668L139.294 79.2739L139.47 79.4434L134.809 79.4196C133.253 79.4196 131.701 79.3823 130.148 79.3654L130.243 79.2739C130.243 79.8942 130.212 80.5178 130.198 81.1483L130.148 83.0668ZM130.148 83.0668L130.096 81.189C130.096 80.5551 130.057 79.9179 130.05 79.2739V79.1688H130.148C131.701 79.1688 133.253 79.118 134.809 79.1146L139.47 79.0942H139.646V79.2637L139.625 83.0566V83.2362H139.47C138.681 83.2362 137.896 83.2362 137.111 83.2193L134.767 83.182L130.148 83.0668Z" fill="#EBEBEB"/>
<path d="M135.348 87.8496L140.047 87.7547L142.363 87.7174C143.134 87.7005 143.902 87.7174 144.669 87.6971L144.511 87.8496V84.0567L144.687 84.2262L140.026 84.2025C138.47 84.2025 136.918 84.1652 135.365 84.1482L135.46 84.0567C135.46 84.677 135.429 85.3007 135.414 85.9311L135.348 87.8496ZM135.348 87.8496L135.298 85.9718C135.281 85.338 135.256 84.7007 135.249 84.0567V83.9652H135.348C136.9 83.9482 138.452 83.9144 140.008 83.911L144.669 83.8906H144.845V84.0601L144.824 87.853V88.0055H144.669C143.884 88.0055 143.096 88.0055 142.311 87.9886L139.966 87.9513L135.348 87.8496Z" fill="#EBEBEB"/>
<path d="M124.928 87.8462H134.25V84.0533H124.928V87.8462Z" fill="#EBEBEB"/>
<path d="M2.34016 114.03L7.04319 113.935L9.3595 113.898C10.1269 113.898 10.8943 113.898 11.6617 113.878L11.5068 114.03L11.4857 110.237L11.6617 110.407L7.00095 110.383C5.44853 110.383 3.89611 110.346 2.34016 110.329L2.43521 110.237C2.43521 110.858 2.40705 111.481 2.38945 112.112L2.34016 114.03ZM2.34016 114.03L2.29088 112.152C2.27328 111.519 2.25216 110.881 2.24512 110.237V110.146H2.34016C3.89611 110.129 5.44853 110.095 7.00095 110.092L11.6617 110.071H11.8377V110.241V114.034V114.186H11.6793C10.8943 114.186 10.1058 114.186 9.3243 114.169L6.97279 114.125L2.34016 114.03Z" fill="#EBEBEB"/>
<path d="M7.54269 118.81H16.8643V115.017H7.54269V118.81Z" fill="#EBEBEB"/>
<path d="M26.4915 43.1926L31.1946 43.0977L33.5109 43.0604C34.2783 43.0434 35.0457 43.0604 35.8131 43.0434L35.6582 43.1926L35.6371 39.3997L35.8131 39.5692L31.1523 39.5488C29.5999 39.5488 28.044 39.5116 26.4915 39.4912L26.5866 39.3997C26.5866 40.02 26.5584 40.647 26.5408 41.2775L26.4915 43.1926ZM26.4915 43.1926L26.4422 41.3182C26.4422 40.6843 26.4035 40.0437 26.3965 39.3997V39.3082H26.4915C28.044 39.2912 29.5999 39.254 31.1523 39.254L35.8131 39.2302H35.9891V39.3997L35.9715 43.1926V43.3451H35.8166C35.0316 43.3451 34.2431 43.3451 33.4616 43.3248L31.1171 43.2875L26.4915 43.1926Z" fill="#EBEBEB"/>
<path d="M7.49288 10.4092L16.8145 10.4092V6.6163L7.49288 6.6163V10.4092Z" fill="#EBEBEB"/>
<path d="M2.29681 15.1918L6.99632 15.1071L9.31263 15.0698C10.0836 15.0698 10.8474 15.0698 11.6184 15.0698L11.46 15.219V11.4261L11.636 11.5956L6.97168 11.5481C5.41573 11.5481 3.86331 11.5108 2.31089 11.4905L2.40594 11.399C2.40594 12.0192 2.37425 12.6429 2.36017 13.2768L2.29681 15.1918ZM2.29681 15.1918L2.24401 13.3174C2.24401 12.6836 2.20528 12.043 2.19824 11.399V11.3075H2.29681C3.84923 11.3075 5.40165 11.2532 6.95759 11.2498L11.6184 11.2295H11.7944V11.399L11.7733 15.1918V15.3444H11.6184C10.8298 15.3444 10.0448 15.3444 9.25983 15.324L6.91535 15.2868L2.29681 15.1918Z" fill="#EBEBEB"/>
<path d="M130.148 10.4091L134.848 10.3142L137.164 10.2769C137.935 10.2769 138.699 10.2769 139.47 10.2769L139.312 10.4261L139.294 6.6332L139.47 6.80268L134.809 6.78234C133.253 6.78234 131.701 6.74506 130.148 6.72472L130.243 6.6332C130.243 7.25348 130.212 7.87716 130.198 8.511L130.148 10.4091ZM130.148 10.4091L130.096 8.53472C130.096 7.90088 130.057 7.26026 130.05 6.61625V6.52474H130.148C131.701 6.52474 133.253 6.4705 134.809 6.46711L139.47 6.44678H139.646V6.6332L139.625 10.4261V10.5786H139.47C138.681 10.5786 137.896 10.5786 137.111 10.5583L134.756 10.504L130.148 10.4091Z" fill="#EBEBEB"/>
<path d="M115.413 57.8389H124.734V54.046H115.413V57.8389Z" fill="#EBEBEB"/>
<path d="M16.2052 30.1563C16.38 30.0532 16.581 29.9987 16.786 29.9987C16.991 29.9987 17.192 30.0532 17.3668 30.1563L17.6661 30.3224C17.7682 30.3732 17.8702 30.4241 17.9758 30.4715C18.1617 30.5536 18.3205 30.6833 18.4347 30.8466C18.549 31.0098 18.6143 31.2002 18.6236 31.3969L18.6658 32.773L23.3266 32.634L23.2808 31.2579C23.2762 31.0602 23.3282 30.8651 23.4313 30.694C23.5344 30.523 23.6846 30.3827 23.8652 30.2885C24.0686 30.1859 24.266 30.0728 24.4566 29.9495C24.624 29.8358 24.8208 29.769 25.0252 29.7564C25.2297 29.7439 25.4337 29.7861 25.6147 29.8784L26.8715 30.5258L29.0751 26.5702L27.8184 25.9194C27.6382 25.826 27.4885 25.6862 27.3859 25.5156C27.2834 25.345 27.232 25.1504 27.2376 24.9534C27.2451 24.7272 27.238 24.5008 27.2165 24.2755C27.1938 24.0766 27.23 23.8755 27.321 23.6956C27.4119 23.5157 27.5539 23.3642 27.7304 23.2586L28.9449 22.5638L26.4807 18.7506L25.2768 19.4657C25.1026 19.5689 24.9022 19.6235 24.6977 19.6235C24.4933 19.6235 24.2928 19.5689 24.1186 19.4657C24.0236 19.4081 23.9215 19.3539 23.823 19.3031C23.7244 19.2522 23.6188 19.198 23.5132 19.1539C23.3268 19.0716 23.1677 18.9413 23.0534 18.7774C22.9391 18.6135 22.874 18.4224 22.8654 18.2252L22.8126 16.8389L18.1519 16.9778L18.1976 18.3336C18.2039 18.5316 18.1525 18.7274 18.0493 18.8987C17.946 19.07 17.7949 19.2101 17.6133 19.3031C17.4099 19.4057 17.2125 19.5188 17.0219 19.642C16.8548 19.7564 16.6579 19.8237 16.4533 19.8363C16.2487 19.8489 16.0445 19.8062 15.8637 19.7132L14.607 19.0658L12.4033 23.0519L13.66 23.7027C13.8401 23.796 13.9896 23.9358 14.0916 24.1065C14.1936 24.2772 14.2441 24.4719 14.2374 24.6687C14.2329 24.8949 14.2411 25.1212 14.262 25.3466C14.2842 25.5454 14.2478 25.7463 14.1569 25.9262C14.066 26.106 13.9243 26.2576 13.748 26.3634L12.5336 27.0888L14.9977 30.902L16.2052 30.1563ZM17.3704 23.0722C17.7261 22.4305 18.2715 21.9048 18.9376 21.5616C19.6037 21.2184 20.3605 21.073 21.1123 21.144C21.8642 21.2149 22.5773 21.499 23.1615 21.9602C23.7457 22.4214 24.1747 23.039 24.3943 23.735C24.6139 24.431 24.6142 25.1741 24.3952 25.8702C24.1762 26.5664 23.7477 27.1844 23.1639 27.6461C22.5801 28.1077 21.8673 28.3923 21.1155 28.4639C20.3637 28.5354 19.6068 28.3907 18.9404 28.048C18.0477 27.5879 17.381 26.8056 17.0867 25.8727C16.7923 24.9399 16.8944 23.9327 17.3704 23.0722Z" fill="#EBEBEB"/>
<path d="M138.277 76.3015C138.35 76.1819 138.456 76.0843 138.584 76.0196C138.711 75.9549 138.855 75.9258 138.999 75.9354H139.481C139.621 75.9282 139.761 75.9582 139.885 76.0222C140.01 76.0861 140.113 76.1815 140.185 76.2981L140.685 77.1353L143.501 75.5626L143.001 74.7288C142.93 74.6087 142.894 74.4718 142.899 74.3334C142.904 74.195 142.949 74.0608 143.029 73.9458C143.118 73.8125 143.199 73.6769 143.272 73.539C143.337 73.4135 143.438 73.3082 143.563 73.2351C143.687 73.162 143.83 73.124 143.976 73.1255H144.976V69.98H143.976C143.831 69.9823 143.687 69.945 143.563 69.8725C143.438 69.7999 143.338 69.6951 143.272 69.5699C143.2 69.4298 143.119 69.294 143.029 69.1632C142.949 69.0482 142.904 68.9139 142.899 68.7755C142.894 68.6372 142.93 68.5002 143.001 68.3802L143.501 67.543L140.685 65.9736L140.181 66.8108C140.11 66.928 140.007 67.0242 139.883 67.0887C139.758 67.1533 139.618 67.1838 139.477 67.1769C139.396 67.1769 139.315 67.1769 139.234 67.1769C139.154 67.1769 139.076 67.1769 138.995 67.1769C138.852 67.1854 138.708 67.1558 138.581 67.0912C138.454 67.0267 138.347 66.9297 138.273 66.8108L137.774 65.9736L134.957 67.543L135.457 68.3768C135.529 68.4969 135.564 68.6338 135.559 68.7722C135.554 68.9105 135.509 69.0448 135.429 69.1598C135.342 69.2931 135.261 69.4287 135.186 69.5665C135.121 69.6923 135.021 69.7979 134.896 69.871C134.772 69.9442 134.628 69.982 134.482 69.98H133.482V73.1255H134.482C134.628 73.124 134.771 73.162 134.896 73.2351C135.02 73.3082 135.121 73.4135 135.186 73.539C135.259 73.6791 135.34 73.8149 135.429 73.9458C135.509 74.0608 135.554 74.195 135.559 74.3334C135.564 74.4718 135.529 74.6087 135.457 74.7288L134.957 75.5626L137.774 77.1353L138.277 76.3015ZM136.563 71.5562C136.562 71.0465 136.718 70.5482 137.012 70.1241C137.305 69.7 137.723 69.3693 138.212 69.1738C138.701 68.9783 139.239 68.9268 139.758 69.0258C140.277 69.1248 140.754 69.3699 141.129 69.7301C141.503 70.0902 141.758 70.5492 141.862 71.049C141.965 71.5488 141.912 72.0669 141.71 72.5378C141.508 73.0087 141.165 73.4112 140.725 73.6944C140.285 73.9777 139.767 74.1288 139.238 74.1288C138.53 74.127 137.851 73.8554 137.351 73.3733C136.85 72.8913 136.568 72.2379 136.566 71.5562H136.563Z" fill="#EBEBEB"/>
<path d="M2.8816 36.3492C3.00612 36.4192 3.10775 36.5214 3.17495 36.6442C3.24216 36.7671 3.27224 36.9056 3.26179 37.044C3.26179 37.1186 3.26179 37.1966 3.26179 37.2745C3.26179 37.3525 3.26179 37.4304 3.26179 37.5084C3.26926 37.6437 3.2381 37.7785 3.17171 37.898C3.10531 38.0175 3.0062 38.1172 2.88512 38.1863L2.01562 38.6676L3.64901 41.3792L4.50795 40.9216C4.63289 40.8535 4.77499 40.8199 4.91851 40.8247C5.06204 40.8295 5.20139 40.8724 5.32112 40.9488C5.45841 41.0335 5.59922 41.1149 5.74355 41.186C5.87176 41.247 5.97982 41.3411 6.05566 41.4578C6.13151 41.5746 6.17214 41.7093 6.17302 41.847V42.8096H9.43627V41.847C9.43642 41.7096 9.47637 41.5749 9.55161 41.4582C9.62685 41.3414 9.73442 41.2472 9.86222 41.186C10.0078 41.115 10.1488 41.0358 10.2847 40.9488C10.4044 40.8724 10.5437 40.8295 10.6873 40.8247C10.8308 40.8199 10.9729 40.8535 11.0978 40.9216L11.9673 41.403L13.5972 38.6913L12.7277 38.2066C12.6068 38.1371 12.5076 38.0374 12.4407 37.9181C12.3737 37.7988 12.3415 37.6642 12.3475 37.5287C12.3475 37.4508 12.3475 37.3762 12.3475 37.2982C12.3475 37.2203 12.3475 37.1423 12.3475 37.0678C12.3383 36.9295 12.3689 36.7914 12.436 36.6688C12.5031 36.5462 12.604 36.4438 12.7277 36.3729L13.5972 35.8916L11.9673 33.18L11.1013 33.6613C10.9767 33.7302 10.8344 33.7642 10.6907 33.7594C10.547 33.7546 10.4076 33.7113 10.2882 33.6342C10.1521 33.5506 10.0112 33.4726 9.86574 33.4003C9.73511 33.3377 9.62548 33.2409 9.5495 33.121C9.47352 33.001 9.43427 32.8629 9.43627 32.7224V31.7598H6.18006V32.7224C6.18165 32.8628 6.14223 33.0008 6.06629 33.1206C5.99036 33.2405 5.88096 33.3374 5.75059 33.4003C5.60511 33.4702 5.46406 33.5483 5.32816 33.6342C5.20804 33.7112 5.06804 33.7545 4.92381 33.7593C4.77958 33.7641 4.63682 33.7302 4.51147 33.6613L3.64901 33.18L2.01562 35.8916L2.8816 36.3492ZM7.80993 34.6985C8.33922 34.6978 8.85682 34.8483 9.29724 35.131C9.73767 35.4136 10.0811 35.8157 10.2842 36.2864C10.4872 36.757 10.5407 37.2751 10.4378 37.775C10.335 38.2749 10.0805 38.7342 9.70647 39.0949C9.33245 39.4555 8.85575 39.7011 8.33668 39.8008C7.81761 39.9005 7.27951 39.8497 6.79044 39.6548C6.30137 39.4599 5.88333 39.1297 5.5892 38.706C5.29507 38.2823 5.13807 37.7842 5.13807 37.2745C5.139 36.5922 5.42068 35.938 5.92145 35.4552C6.42222 34.9724 7.10127 34.7003 7.80993 34.6985Z" fill="#EBEBEB"/>
<path d="M31.9514 150C46.0661 150 57.5083 148.423 57.5083 146.478C57.5083 144.533 46.0661 142.957 31.9514 142.957C17.8367 142.957 6.39453 144.533 6.39453 146.478C6.39453 148.423 17.8367 150 31.9514 150Z" fill="#EBEBEB"/>
<path d="M2.19824 138.628L20.0247 138.547L37.8511 138.516L73.504 138.459L109.157 138.513L126.983 138.543L144.81 138.628L126.983 138.71L109.157 138.74L73.504 138.798L37.8511 138.74L20.0247 138.71L2.19824 138.628Z" fill="#263238"/>
<path d="M103.254 8.86035H43.7621C42.9624 8.86522 42.1716 9.02205 41.435 9.32185C40.6983 9.62164 40.0304 10.0585 39.4696 10.6074C38.9087 11.1563 38.4658 11.8064 38.1664 12.5204C37.8671 13.2344 37.717 13.9983 37.7249 14.7683V132.724C37.7108 134.276 38.3374 135.769 39.4669 136.877C40.5963 137.984 42.1362 138.614 43.748 138.628H103.24C104.04 138.623 104.83 138.466 105.567 138.166C106.303 137.867 106.971 137.43 107.533 136.882C108.094 136.334 108.538 135.684 108.838 134.971C109.139 134.257 109.29 133.494 109.284 132.724V14.7683C109.291 13.9991 109.141 13.2362 108.841 12.523C108.542 11.8098 108.1 11.1604 107.54 10.6117C106.98 10.0631 106.313 9.6261 105.578 9.3256C104.842 9.02509 104.053 8.867 103.254 8.86035ZM105.518 129.077C105.518 132.181 103.103 134.693 100.125 134.693H46.8881C43.9029 134.693 41.488 132.181 41.488 129.077V19.2357C41.488 12.9108 43.9029 12.6024 46.8881 12.6024H57.5508C58.1704 12.6024 58.6773 13.2803 58.6773 14.1209V14.4836C58.6773 16.4631 59.7968 16.4631 61.1837 16.4631H85.8253C87.2088 16.4631 88.3212 16.4631 88.3212 14.487V14.1209C88.3212 13.2803 88.8175 12.6024 89.4477 12.6024H100.114C103.092 12.6024 105.507 13.443 105.507 19.2357L105.518 129.077Z" fill="#263238"/>
<path d="M76.8662 13.9989H70.139C70.0845 13.9989 70.0305 13.9886 69.9801 13.9685C69.9297 13.9484 69.8839 13.9189 69.8453 13.8818C69.8067 13.8446 69.7761 13.8005 69.7553 13.752C69.7344 13.7035 69.7236 13.6515 69.7236 13.5989C69.7236 13.4929 69.7674 13.3911 69.8453 13.3161C69.9232 13.2411 70.0289 13.199 70.139 13.199H76.8662C76.9763 13.199 77.082 13.2411 77.1599 13.3161C77.2378 13.3911 77.2816 13.4929 77.2816 13.5989C77.2816 13.6515 77.2708 13.7035 77.2499 13.752C77.2291 13.8005 77.1985 13.8446 77.1599 13.8818C77.1213 13.9189 77.0755 13.9484 77.0251 13.9685C76.9747 13.9886 76.9207 13.9989 76.8662 13.9989Z" fill="white"/>
<path d="M105.539 19.2358V129.077C105.539 132.182 103.124 134.693 100.146 134.693H46.8883C43.9032 134.693 41.4883 132.182 41.4883 129.077V19.2358C41.4883 12.911 43.9032 12.6025 46.8883 12.6025H57.5511C58.1707 12.6025 58.6776 13.2804 58.6776 14.121V14.4837C58.6776 16.4632 59.797 16.4632 61.184 16.4632H85.8256C87.2126 16.4632 88.3214 16.4632 88.3214 14.4871V14.121C88.3214 13.2804 88.8213 12.6025 89.4514 12.6025H100.118C103.106 12.6025 105.539 13.4431 105.539 19.2358Z" fill="white"/>
<path d="M47.9681 23.4284L46.0742 21.7235L47.9681 20.0151L48.2603 20.3168L46.7043 21.7235L48.2603 23.1301L47.9681 23.4284Z" fill="#C7C7C7"/>
<path d="M100.561 20.6591C100.561 20.7302 100.539 20.7996 100.498 20.8587C100.457 20.9178 100.399 20.9639 100.33 20.9911C100.262 21.0182 100.187 21.0254 100.115 21.0115C100.042 20.9976 99.9759 20.9634 99.9237 20.9132C99.8716 20.8629 99.836 20.7989 99.8216 20.7292C99.8072 20.6595 99.8146 20.5873 99.8429 20.5216C99.8711 20.456 99.9189 20.3999 99.9803 20.3604C100.042 20.3209 100.114 20.2998 100.188 20.2998C100.237 20.2994 100.285 20.3084 100.331 20.3262C100.376 20.3441 100.418 20.3706 100.453 20.404C100.487 20.4375 100.515 20.4773 100.533 20.5211C100.552 20.5649 100.561 20.6118 100.561 20.6591Z" fill="#C7C7C7"/>
<path d="M100.561 21.9338C100.561 22.0048 100.539 22.0743 100.498 22.1334C100.457 22.1925 100.399 22.2385 100.33 22.2657C100.262 22.2929 100.187 22.3 100.115 22.2862C100.042 22.2723 99.9759 22.2381 99.9237 22.1878C99.8716 22.1376 99.836 22.0736 99.8216 22.0039C99.8072 21.9342 99.8146 21.8619 99.8429 21.7963C99.8711 21.7306 99.9189 21.6745 99.9803 21.635C100.042 21.5956 100.114 21.5745 100.188 21.5745C100.237 21.574 100.285 21.583 100.331 21.6009C100.376 21.6188 100.418 21.6452 100.453 21.6787C100.487 21.7122 100.515 21.7519 100.533 21.7957C100.552 21.8395 100.561 21.8865 100.561 21.9338Z" fill="#C7C7C7"/>
<path d="M100.561 23.2082C100.561 23.2792 100.539 23.3487 100.498 23.4078C100.457 23.4669 100.399 23.5129 100.33 23.5401C100.262 23.5673 100.187 23.5744 100.115 23.5606C100.042 23.5467 99.9759 23.5125 99.9237 23.4622C99.8716 23.412 99.836 23.348 99.8216 23.2783C99.8072 23.2086 99.8146 23.1363 99.8429 23.0707C99.8711 23.005 99.9189 22.9489 99.9803 22.9094C100.042 22.87 100.114 22.8489 100.188 22.8489C100.237 22.8484 100.285 22.8574 100.331 22.8753C100.376 22.8932 100.418 22.9197 100.453 22.9531C100.487 22.9866 100.515 23.0264 100.533 23.0702C100.552 23.114 100.561 23.1609 100.561 23.2082Z" fill="#C7C7C7"/>
<path d="M55.71 15.0699L55.608 15.1682L55.5481 15.2224C55.2843 14.9699 54.9274 14.8282 54.5554 14.8282C54.1834 14.8282 53.8265 14.9699 53.5627 15.2224L53.5064 15.1648L53.4043 15.0665L53.5345 14.9547C53.629 14.8842 53.7304 14.8229 53.8373 14.7716C53.9638 14.7101 54.099 14.6668 54.2386 14.6428C54.3037 14.6302 54.3695 14.6212 54.4357 14.6157H54.6117H54.7455C54.8717 14.6303 54.9957 14.6587 55.1151 14.7005C55.2002 14.7315 55.2826 14.7689 55.3615 14.8123C55.4451 14.8584 55.524 14.9117 55.5974 14.9716L55.7065 15.0665L55.71 15.0699Z" fill="#C7C7C7"/>
<path d="M53.8901 15.5343L53.7246 15.3784C53.9455 15.1673 54.2441 15.0488 54.5554 15.0488C54.8666 15.0488 55.1653 15.1673 55.3862 15.3784L55.2207 15.5343C55.0439 15.365 54.8047 15.27 54.5554 15.27C54.306 15.27 54.0668 15.365 53.8901 15.5343Z" fill="#C7C7C7"/>
<path d="M55.0592 15.6936L54.8972 15.8461C54.8508 15.8023 54.7957 15.7677 54.7353 15.7444C54.6749 15.7212 54.6103 15.7096 54.5452 15.7105C54.4798 15.7093 54.4148 15.721 54.3542 15.7449C54.2937 15.7688 54.2389 15.8044 54.1932 15.8495C54.1404 15.7953 54.0841 15.7444 54.0312 15.6936C54.0971 15.6259 54.1767 15.5719 54.2651 15.535C54.3535 15.4981 54.4488 15.479 54.5452 15.479C54.6416 15.479 54.7369 15.4981 54.8253 15.535C54.9137 15.5719 54.9933 15.6259 55.0592 15.6936Z" fill="#C7C7C7"/>
<path d="M54.7034 15.9886C54.7034 16.0264 54.6878 16.0626 54.6601 16.0893C54.6323 16.116 54.5947 16.131 54.5555 16.131C54.5363 16.131 54.5172 16.1273 54.4995 16.1201C54.4817 16.1129 54.4656 16.1024 54.4522 16.0891C54.4387 16.0758 54.4282 16.0601 54.4211 16.0428C54.4141 16.0256 54.4107 16.0072 54.4112 15.9886C54.4112 15.9518 54.4264 15.9164 54.4534 15.8904C54.4805 15.8643 54.5172 15.8497 54.5555 15.8497C54.5748 15.8492 54.5939 15.8525 54.6118 15.8592C54.6297 15.866 54.6461 15.8762 54.6598 15.8891C54.6736 15.9021 54.6846 15.9176 54.692 15.9346C54.6995 15.9517 54.7034 15.9701 54.7034 15.9886Z" fill="#C7C7C7"/>
<path d="M45.6631 15.3681C45.6631 15.2869 45.6882 15.2074 45.7351 15.1399C45.7821 15.0724 45.8488 15.0198 45.9269 14.9889C46.0049 14.958 46.0907 14.95 46.1734 14.9661C46.2562 14.9822 46.3321 15.0216 46.3915 15.0793C46.4509 15.137 46.4912 15.2104 46.5072 15.2902C46.5233 15.37 46.5143 15.4526 46.4816 15.5274C46.4488 15.6023 46.3936 15.6661 46.3231 15.7108C46.2526 15.7555 46.1699 15.7789 46.0855 15.7783C46.0298 15.7783 45.9745 15.7676 45.9231 15.747C45.8716 15.7263 45.8248 15.6961 45.7856 15.6579C45.7463 15.6198 45.7153 15.5746 45.6942 15.5248C45.6732 15.4751 45.6626 15.4218 45.6631 15.3681Z" fill="#C7C7C7"/>
<path d="M46.9971 15.3682C46.9985 15.2874 47.0247 15.2088 47.0723 15.1422C47.12 15.0757 47.187 15.0242 47.2649 14.9942C47.3428 14.9641 47.4283 14.957 47.5104 14.9736C47.5926 14.9902 47.6678 15.0297 47.7267 15.0874C47.7855 15.145 47.8254 15.2181 47.8413 15.2974C47.8572 15.3768 47.8483 15.4589 47.8159 15.5335C47.7834 15.608 47.7289 15.6717 47.659 15.7164C47.5891 15.7612 47.507 15.7851 47.4231 15.7851C47.3665 15.7851 47.3106 15.7743 47.2584 15.7533C47.2063 15.7322 47.159 15.7014 47.1194 15.6626C47.0797 15.6238 47.0485 15.5778 47.0275 15.5272C47.0065 15.4767 46.9962 15.4226 46.9971 15.3682Z" fill="#C7C7C7"/>
<path d="M48.335 15.3682C48.3364 15.2874 48.3626 15.2088 48.4102 15.1422C48.4578 15.0757 48.5248 15.0242 48.6028 14.9942C48.6807 14.9641 48.7661 14.957 48.8483 14.9736C48.9305 14.9902 49.0057 15.0297 49.0646 15.0874C49.1234 15.145 49.1633 15.2181 49.1792 15.2974C49.195 15.3768 49.1862 15.4589 49.1538 15.5335C49.1213 15.608 49.0667 15.6717 48.9969 15.7164C48.927 15.7612 48.8449 15.7851 48.761 15.7851C48.7044 15.7851 48.6485 15.7743 48.5963 15.7533C48.5442 15.7322 48.4969 15.7014 48.4573 15.6626C48.4176 15.6238 48.3864 15.5778 48.3654 15.5272C48.3444 15.4767 48.3341 15.4226 48.335 15.3682Z" fill="#C7C7C7"/>
<path d="M49.673 15.3682C49.6744 15.2872 49.7006 15.2085 49.7484 15.1419C49.7962 15.0752 49.8634 15.0237 49.9416 14.9938C50.0197 14.9639 50.1053 14.957 50.1876 14.9738C50.2698 14.9907 50.345 15.0306 50.4038 15.0886C50.4625 15.1465 50.5021 15.2199 50.5175 15.2995C50.533 15.3791 50.5237 15.4613 50.4907 15.5358C50.4577 15.6103 50.4026 15.6737 50.3323 15.7181C50.2619 15.7624 50.1795 15.7858 50.0954 15.7851C50.039 15.7851 49.9832 15.7743 49.9313 15.7532C49.8793 15.7321 49.8323 15.7012 49.7929 15.6624C49.7535 15.6235 49.7227 15.5775 49.7021 15.527C49.6815 15.4764 49.6716 15.4224 49.673 15.3682Z" fill="#C7C7C7"/>
<path d="M51.0099 15.3682C51.0113 15.2872 51.0375 15.2085 51.0853 15.1419C51.1331 15.0752 51.2003 15.0237 51.2785 14.9938C51.3566 14.9639 51.4422 14.957 51.5245 14.9738C51.6067 14.9907 51.6819 15.0306 51.7407 15.0886C51.7994 15.1465 51.839 15.2199 51.8545 15.2995C51.8699 15.3791 51.8606 15.4613 51.8276 15.5358C51.7946 15.6103 51.7395 15.6737 51.6692 15.7181C51.5988 15.7624 51.5164 15.7858 51.4323 15.7851C51.376 15.7851 51.3201 15.7743 51.2682 15.7532C51.2162 15.7321 51.1692 15.7012 51.1298 15.6624C51.0905 15.6235 51.0596 15.5775 51.039 15.527C51.0184 15.4764 51.0085 15.4224 51.0099 15.3682Z" fill="#C7C7C7"/>
<path d="M100.719 16.2629H97.2588V14.7173H100.719V16.2629ZM97.4418 16.09H100.54V14.8902H97.4418V16.09Z" fill="#C7C7C7"/>
<path d="M99.7762 14.9819H97.5479V15.9988H99.7762V14.9819Z" fill="#C7C7C7"/>
<path d="M101.026 15.0767H100.72V15.9003H101.026V15.0767Z" fill="#C7C7C7"/>
<path d="M51.2183 127.978H50.729V130.131H49.8207V129.033H48.2085V130.131H47.3002V127.978H46.8145L49.0146 125.785L51.2183 127.978Z" fill="#EBEBEB"/>
<path d="M100.198 125.785H94.8896V126.514H100.198V125.785Z" fill="#EBEBEB"/>
<path d="M100.198 127.592H94.8896V128.321H100.198V127.592Z" fill="#EBEBEB"/>
<path d="M100.198 129.398H94.8896V130.127H100.198V129.398Z" fill="#EBEBEB"/>
<path d="M75.0145 127.666L73.5043 129.219L71.9941 127.666L72.2617 127.429L73.5043 128.704L74.747 127.429L75.0145 127.666Z" fill="#EBEBEB"/>
<path d="M73.505 130.822C72.9626 130.822 72.4324 130.668 71.9814 130.377C71.5305 130.087 71.179 129.675 70.9714 129.192C70.7639 128.71 70.7096 128.179 70.8154 127.667C70.9212 127.155 71.1824 126.684 71.5659 126.315C71.9494 125.946 72.438 125.694 72.97 125.592C73.5019 125.49 74.0533 125.543 74.5544 125.742C75.0555 125.942 75.4837 126.281 75.7851 126.715C76.0864 127.149 76.2472 127.66 76.2472 128.182C76.2454 128.882 75.9558 129.552 75.442 130.047C74.9281 130.542 74.2317 130.821 73.505 130.822ZM73.505 125.891C73.0343 125.891 72.5742 126.025 72.1829 126.277C71.7915 126.529 71.4865 126.886 71.3064 127.305C71.1263 127.724 71.0792 128.184 71.171 128.629C71.2628 129.073 71.4895 129.482 71.8223 129.802C72.1551 130.123 72.5791 130.341 73.0407 130.429C73.5023 130.518 73.9808 130.472 74.4156 130.299C74.8505 130.125 75.2221 129.832 75.4836 129.455C75.7451 129.078 75.8846 128.635 75.8846 128.182C75.8846 127.574 75.6339 126.991 75.1876 126.562C74.7414 126.132 74.1361 125.891 73.505 125.891Z" fill="#EBEBEB"/>
<path d="M69.4106 118.695C69.4106 118.869 69.3569 119.039 69.2564 119.184C69.1558 119.329 69.0128 119.442 68.8456 119.509C68.6784 119.575 68.4943 119.593 68.3168 119.559C68.1392 119.525 67.9762 119.441 67.8482 119.318C67.7201 119.194 67.633 119.037 67.5977 118.866C67.5623 118.695 67.5805 118.518 67.6498 118.357C67.719 118.196 67.8363 118.059 67.9868 117.962C68.1374 117.865 68.3143 117.813 68.4953 117.813C68.6157 117.813 68.7349 117.835 68.8461 117.879C68.9574 117.924 69.0585 117.988 69.1436 118.07C69.2286 118.152 69.296 118.25 69.3419 118.357C69.3877 118.464 69.4111 118.579 69.4106 118.695Z" fill="#DBDBDB"/>
<path d="M74.9898 118.694C74.9898 118.958 74.9084 119.217 74.756 119.436C74.6036 119.656 74.387 119.827 74.1336 119.928C73.8801 120.029 73.6013 120.056 73.3322 120.004C73.0632 119.953 72.816 119.825 72.6221 119.639C72.4281 119.452 72.296 119.214 72.2425 118.955C72.189 118.696 72.2164 118.427 72.3214 118.183C72.4264 117.939 72.6041 117.731 72.8322 117.584C73.0603 117.437 73.3285 117.359 73.6028 117.359C73.9706 117.359 74.3234 117.5 74.5835 117.75C74.8436 118 74.9898 118.34 74.9898 118.694Z" fill="#5D4037"/>
<path d="M79.6264 118.695C79.6264 118.869 79.5727 119.039 79.4722 119.184C79.3716 119.329 79.2287 119.442 79.0614 119.509C78.8942 119.575 78.7101 119.593 78.5326 119.559C78.3551 119.525 78.192 119.441 78.064 119.318C77.936 119.194 77.8488 119.037 77.8135 118.866C77.7782 118.695 77.7963 118.518 77.8656 118.357C77.9348 118.196 78.0522 118.059 78.2027 117.962C78.3532 117.865 78.5301 117.813 78.7112 117.813C78.8315 117.813 78.9507 117.835 79.062 117.879C79.1732 117.924 79.2743 117.988 79.3594 118.07C79.4445 118.152 79.5119 118.25 79.5577 118.357C79.6035 118.464 79.6269 118.579 79.6264 118.695Z" fill="#DBDBDB"/>
<path d="M85.6601 94.1406H60.9551V101.706H85.6601V94.1406Z" fill="#5D4037"/>
<path d="M67.8719 98.9843V96.9506C67.8714 96.9255 67.8762 96.9006 67.8859 96.8774C67.8957 96.8542 67.9102 96.8331 67.9286 96.8153C67.947 96.7976 67.9689 96.7837 67.993 96.7743C68.0171 96.7649 68.043 96.7603 68.069 96.7608C68.0952 96.7603 68.1212 96.7649 68.1455 96.7742C68.1699 96.7836 68.192 96.7975 68.2107 96.8152C68.2294 96.8328 68.2442 96.8539 68.2543 96.8772C68.2645 96.9004 68.2697 96.9254 68.2697 96.9506V98.8047H69.2483C69.3015 98.8047 69.3525 98.825 69.3902 98.8612C69.4278 98.8975 69.4489 98.9466 69.4489 98.9979C69.4489 99.0491 69.4278 99.0982 69.3902 99.1345C69.3525 99.1707 69.3015 99.1911 69.2483 99.1911H68.069C68.0416 99.1912 68.0144 99.1858 67.9893 99.1752C67.9641 99.1646 67.9416 99.1491 67.923 99.1296C67.9045 99.1102 67.8903 99.0872 67.8815 99.0622C67.8727 99.0371 67.8694 99.0106 67.8719 98.9843Z" fill="white"/>
<path d="M71.7449 97.0457C71.9795 97.2822 72.1103 97.5966 72.1103 97.9236C72.1103 98.2506 71.9795 98.565 71.7449 98.8015C71.6365 98.9176 71.5041 99.0107 71.3562 99.0749C71.2083 99.1391 71.0482 99.173 70.886 99.1743C70.72 99.174 70.5559 99.1407 70.4038 99.0766C70.2518 99.0124 70.1152 98.9188 70.0024 98.8015C69.7718 98.5631 69.6436 98.2494 69.6436 97.9236C69.6436 97.5978 69.7718 97.2841 70.0024 97.0457C70.1146 96.9278 70.2512 96.8337 70.4033 96.7695C70.5555 96.7053 70.7199 96.6724 70.886 96.6729C71.0483 96.6736 71.2086 96.7071 71.3566 96.7714C71.5046 96.8356 71.6369 96.9291 71.7449 97.0457ZM71.6991 97.9236C71.6991 97.6987 71.6111 97.4821 71.4527 97.3169C71.3812 97.2401 71.2939 97.1785 71.1963 97.1359C71.0987 97.0933 70.9931 97.0707 70.886 97.0694C70.776 97.069 70.6672 97.0907 70.5665 97.1334C70.4658 97.176 70.3756 97.2385 70.3016 97.3169C70.142 97.4814 70.0538 97.6985 70.0552 97.9236C70.0529 98.1479 70.1413 98.3642 70.3016 98.5269C70.3754 98.6057 70.4655 98.6688 70.5662 98.712C70.6668 98.7552 70.7758 98.7776 70.886 98.7777C70.9933 98.7759 71.0991 98.7526 71.1966 98.7094C71.2941 98.6662 71.3813 98.6041 71.4527 98.5269C71.6064 98.3612 71.6894 98.1457 71.6851 97.9236H71.6991Z" fill="white"/>
<path d="M72.6953 97.927C72.7011 97.689 72.7754 97.4572 72.9101 97.2575C73.0447 97.0578 73.2344 96.8981 73.4578 96.7961C73.6813 96.6942 73.9298 96.654 74.1755 96.6801C74.4213 96.7063 74.6547 96.7976 74.8497 96.9441C74.8926 96.9764 74.9205 97.0239 74.9271 97.076C74.9337 97.1282 74.9185 97.1807 74.8849 97.222C74.8513 97.2634 74.802 97.2902 74.7479 97.2965C74.6937 97.3029 74.6392 97.2883 74.5962 97.2559C74.434 97.135 74.2346 97.0695 74.0295 97.0695C73.9088 97.0677 73.7889 97.0893 73.6771 97.133C73.5652 97.1766 73.4636 97.2415 73.3782 97.3237C73.2927 97.4005 73.2246 97.4933 73.178 97.5965C73.1313 97.6998 73.1073 97.8111 73.1073 97.9236C73.1073 98.0362 73.1313 98.1475 73.178 98.2508C73.2246 98.354 73.2927 98.4468 73.3782 98.5236C73.4636 98.6058 73.5652 98.6707 73.6771 98.7143C73.7889 98.758 73.9088 98.7796 74.0295 98.7778C74.203 98.7766 74.3731 98.731 74.5223 98.6456V98.1711H74.0048C73.9507 98.1694 73.8992 98.1476 73.8612 98.1104C73.8232 98.0732 73.8015 98.0233 73.8007 97.9711C73.8016 97.9196 73.8235 97.8704 73.8617 97.8343C73.8999 97.7981 73.9513 97.7779 74.0048 97.7779H74.7089C74.736 97.777 74.763 97.7813 74.7884 97.7906C74.8137 97.7998 74.8369 97.8139 74.8566 97.8318C74.8762 97.8498 74.892 97.8714 74.9029 97.8953C74.9138 97.9192 74.9196 97.945 74.9201 97.9711V98.7405C74.9221 98.7597 74.9221 98.779 74.9201 98.7982C74.9074 98.8333 74.8825 98.8632 74.8497 98.8829C74.6555 99.0294 74.4229 99.121 74.1778 99.1475C73.9327 99.1741 73.6848 99.1345 73.4617 99.0333C73.2386 98.932 73.0491 98.773 72.9144 98.5741C72.7797 98.3752 72.7051 98.1441 72.6988 97.9067L72.6953 97.927Z" fill="white"/>
<path d="M75.7715 96.934C75.771 96.9089 75.7758 96.884 75.7855 96.8608C75.7953 96.8376 75.8098 96.8165 75.8282 96.7987C75.8466 96.781 75.8685 96.7671 75.8926 96.7577C75.9168 96.7483 75.9426 96.7437 75.9686 96.7442C75.995 96.7437 76.0212 96.7483 76.0457 96.7576C76.0702 96.7669 76.0926 96.7807 76.1116 96.7984C76.1305 96.816 76.1457 96.837 76.1562 96.8603C76.1667 96.8836 76.1724 96.9086 76.1728 96.934V98.9677C76.171 99.0187 76.1487 99.0669 76.1106 99.1023C76.0725 99.1378 76.0216 99.1575 75.9686 99.1575C75.9426 99.158 75.9168 99.1534 75.8926 99.144C75.8685 99.1346 75.8466 99.1207 75.8282 99.1029C75.8098 99.0852 75.7953 99.0641 75.7855 99.0409C75.7758 99.0176 75.771 98.9928 75.7715 98.9677V96.934Z" fill="white"/>
<path d="M77.2429 98.9844C77.2429 99.0348 77.2222 99.0831 77.1852 99.1187C77.1482 99.1543 77.0981 99.1742 77.0458 99.1742C76.9935 99.1742 76.9434 99.1543 76.9064 99.1187C76.8695 99.0831 76.8487 99.0348 76.8487 98.9844V96.9507C76.848 96.9199 76.855 96.8893 76.8691 96.8616C76.8831 96.8339 76.9039 96.8098 76.9296 96.7914C76.9723 96.7636 77.0243 96.7523 77.0752 96.7599C77.1262 96.7674 77.1722 96.7932 77.2042 96.8321L78.3694 98.3845V96.9643C78.3694 96.9398 78.3744 96.9156 78.3842 96.8929C78.3939 96.8703 78.4081 96.8498 78.4261 96.8325C78.4441 96.8151 78.4654 96.8014 78.4889 96.792C78.5124 96.7827 78.5376 96.7779 78.563 96.7779C78.6147 96.7779 78.6643 96.7974 78.7012 96.8323C78.7381 96.8671 78.7592 96.9145 78.7602 96.9643V98.998C78.7593 99.0481 78.7382 99.0958 78.7014 99.1312C78.6646 99.1667 78.615 99.1869 78.563 99.1878C78.5344 99.1874 78.5063 99.1808 78.4807 99.1685C78.4551 99.1562 78.4327 99.1385 78.4152 99.1166L78.3976 99.0963L77.2429 97.5541V98.9844Z" fill="white"/>
<path d="M79.4893 35.5765V38.0543H77.6693V35.5765C77.6693 33.2039 75.8071 31.3023 73.519 31.3023C71.2308 31.3023 69.3686 33.2174 69.3686 35.5765V41.7794H67.5205V35.5765C67.5205 32.187 70.1994 29.4517 73.5049 29.4517C76.8104 29.4517 79.4893 32.2006 79.4893 35.5765Z" fill="#C7C7C7"/>
<path d="M67.5342 38.061L69.3541 38.1322V41.7793H67.5342V38.061Z" fill="#A6A6A6"/>
<path d="M81.8086 39.7017H65.2002V54.2088H81.8086V39.7017Z" fill="#5D4037"/>
<path opacity="0.1" d="M81.8091 39.7017H73.5049V54.2088H81.8091V39.7017Z" fill="black"/>
<path d="M74.2088 47.4874L74.9128 50.66H71.9629L72.6669 47.4874C72.3938 47.3242 72.1834 47.0797 72.0676 46.791C71.9517 46.5023 71.9367 46.1851 72.0248 45.8875C72.113 45.5899 72.2994 45.328 72.556 45.1416C72.8126 44.9551 73.1252 44.8542 73.4467 44.8542C73.7681 44.8542 74.0808 44.9551 74.3373 45.1416C74.5939 45.328 74.7804 45.5899 74.8685 45.8875C74.9566 46.1851 74.9416 46.5023 74.8258 46.791C74.7099 47.0797 74.4995 47.3242 74.2264 47.4874H74.2088Z" fill="#263238"/>
<path d="M94.8935 70.2175H52.1191V77.2677H94.8935V70.2175Z" fill="white"/>
<path d="M95.0662 77.437H51.9434V70.0479H95.0662V77.437ZM52.2954 77.0981H94.7142V70.3868H52.2954V77.0981Z" fill="#EBEBEB"/>
<path d="M56.5581 72.1631H56.2061V75.1764H56.5581V72.1631Z" fill="#37474F"/>
<path d="M57.9488 73.4985H54.8193V73.8375H57.9488V73.4985Z" fill="#37474F"/>
<path d="M57.366 72.4814L55.1523 74.6113L55.4012 74.8511L57.6148 72.7211L57.366 72.4814Z" fill="#37474F"/>
<path d="M55.3983 72.483L55.1494 72.7227L57.3623 74.8534L57.6112 74.6137L55.3983 72.483Z" fill="#37474F"/>
<path d="M61.8667 72.1631H61.5146V75.1764H61.8667V72.1631Z" fill="#37474F"/>
<path d="M63.2564 73.4985H60.127V73.8375H63.2564V73.4985Z" fill="#37474F"/>
<path d="M62.6736 72.4848L60.46 74.6147L60.7088 74.8545L62.9224 72.7245L62.6736 72.4848Z" fill="#37474F"/>
<path d="M60.7089 72.482L60.46 72.7217L62.6728 74.8524L62.9218 74.6127L60.7089 72.482Z" fill="#37474F"/>
<path d="M67.1753 72.1631H66.8232V75.1764H67.1753V72.1631Z" fill="#37474F"/>
<path d="M68.566 73.4985H65.4365V73.8375H68.566V73.4985Z" fill="#37474F"/>
<path d="M67.9812 72.485L65.7676 74.615L66.0164 74.8547L68.2301 72.7248L67.9812 72.485Z" fill="#37474F"/>
<path d="M66.0184 72.4808L65.7695 72.7205L67.9824 74.8512L68.2313 74.6115L66.0184 72.4808Z" fill="#37474F"/>
<path d="M72.4868 72.1631H72.1348V75.1764H72.4868V72.1631Z" fill="#37474F"/>
<path d="M73.8736 73.4985H70.7441V73.8375H73.8736V73.4985Z" fill="#37474F"/>
<path d="M73.2918 72.4853L71.0781 74.6152L71.327 74.855L73.5406 72.725L73.2918 72.4853Z" fill="#37474F"/>
<path d="M71.33 72.484L71.0811 72.7236L73.2939 74.8543L73.5429 74.6147L71.33 72.484Z" fill="#37474F"/>
<path d="M77.7954 72.1631H77.4434V75.1764H77.7954V72.1631Z" fill="#37474F"/>
<path d="M79.1822 73.4985H76.0527V73.8375H79.1822V73.4985Z" fill="#37474F"/>
<path d="M78.5994 72.4853L76.3857 74.6152L76.6346 74.855L78.8482 72.725L78.5994 72.4853Z" fill="#37474F"/>
<path d="M76.6366 72.4796L76.3877 72.7192L78.6006 74.85L78.8495 74.6103L76.6366 72.4796Z" fill="#37474F"/>
<path d="M83.104 72.1631H82.752V75.1764H83.104V72.1631Z" fill="#37474F"/>
<path d="M84.4947 73.4985H81.3652V73.8375H84.4947V73.4985Z" fill="#37474F"/>
<path d="M83.909 72.4831L81.6953 74.613L81.9441 74.8528L84.1578 72.7228L83.909 72.4831Z" fill="#37474F"/>
<path d="M81.9462 72.4786L81.6973 72.7183L83.9101 74.849L84.1591 74.6093L81.9462 72.4786Z" fill="#37474F"/>
<path d="M91.24 74.8305C90.858 74.8085 90.4857 74.706 90.1493 74.5303C89.813 74.3546 89.5207 74.11 89.2933 73.8137L89.2158 73.712L89.2933 73.6137C89.5063 73.3075 89.7944 73.0565 90.1321 72.883C90.4697 72.7094 90.8466 72.6187 91.2294 72.6187C91.6122 72.6187 91.989 72.7094 92.3267 72.883C92.6644 73.0565 92.9525 73.3075 93.1655 73.6137L93.2394 73.712L93.1655 73.8137C92.9405 74.1076 92.6516 74.3508 92.3191 74.5264C91.9866 74.702 91.6183 74.8058 91.24 74.8305ZM89.6629 73.7256C89.8444 73.9664 90.0826 74.1624 90.3579 74.2976C90.6333 74.4328 90.9379 74.5033 91.247 74.5033C91.5561 74.5033 91.8607 74.4328 92.1361 74.2976C92.4114 74.1624 92.6496 73.9664 92.8311 73.7256C92.6496 73.4847 92.4114 73.2887 92.1361 73.1535C91.8607 73.0183 91.5561 72.9478 91.247 72.9478C90.9379 72.9478 90.6333 73.0183 90.3579 73.1535C90.0826 73.2887 89.8444 73.4847 89.6629 73.7256Z" fill="#EBEBEB"/>
<path d="M91.2354 74.4882C91.6728 74.4882 92.0275 74.1467 92.0275 73.7255C92.0275 73.3043 91.6728 72.9629 91.2354 72.9629C90.798 72.9629 90.4434 73.3043 90.4434 73.7255C90.4434 74.1467 90.798 74.4882 91.2354 74.4882Z" fill="#EBEBEB"/>
<path d="M92.5403 72.1965L89.7275 74.9048L89.9765 75.1445L92.7892 72.4361L92.5403 72.1965Z" fill="#EBEBEB"/>
<path d="M62.0037 62.8758H61.4405V63.8283C61.4405 63.893 61.4138 63.9551 61.3663 64.0008C61.3187 64.0466 61.2543 64.0723 61.1871 64.0723C61.1198 64.0723 61.0554 64.0466 61.0078 64.0008C60.9603 63.9551 60.9336 63.893 60.9336 63.8283V61.2353C60.9336 61.2034 60.9402 61.1718 60.953 61.1424C60.9657 61.113 60.9845 61.0863 61.008 61.0639C61.0316 61.0415 61.0596 61.0238 61.0903 61.012C61.1211 61.0001 61.1539 60.9942 61.1871 60.9946H62.0037C62.137 60.9869 62.2704 61.0055 62.3959 61.0493C62.5213 61.0931 62.6362 61.1611 62.7333 61.2492C62.8305 61.3373 62.9079 61.4436 62.9608 61.5616C63.0137 61.6796 63.041 61.8067 63.041 61.9352C63.041 62.0637 63.0137 62.1908 62.9608 62.3088C62.9079 62.4268 62.8305 62.5331 62.7333 62.6212C62.6362 62.7093 62.5213 62.7773 62.3959 62.8211C62.2704 62.8649 62.137 62.8835 62.0037 62.8758ZM61.4405 62.3877H62.0037C62.0689 62.3931 62.1345 62.3855 62.1964 62.3652C62.2583 62.3449 62.3151 62.3125 62.3633 62.2699C62.4115 62.2274 62.4499 62.1757 62.4763 62.118C62.5026 62.0604 62.5162 61.9982 62.5162 61.9352C62.5162 61.8723 62.5026 61.81 62.4763 61.7524C62.4499 61.6947 62.4115 61.643 62.3633 61.6005C62.3151 61.5579 62.2583 61.5255 62.1964 61.5052C62.1345 61.4849 62.0689 61.4773 62.0037 61.4827H61.4405V62.3877Z" fill="#5D4037"/>
<path d="M64.9075 63.3436H63.7987L63.5734 63.9164C63.5536 63.9611 63.5208 63.9993 63.4789 64.0263C63.4371 64.0534 63.3879 64.0682 63.3375 64.0689C63.3084 64.0741 63.2786 64.0741 63.2495 64.0689C63.1863 64.046 63.1351 64.0001 63.1067 63.9412C63.0784 63.8822 63.0753 63.8148 63.0981 63.7537L64.1084 61.1641C64.1287 61.1184 64.1626 61.0794 64.2058 61.0523C64.2491 61.0251 64.2997 61.0109 64.3513 61.0116C64.4027 61.0102 64.4532 61.0242 64.496 61.0514C64.5389 61.0787 64.5719 61.1181 64.5907 61.1641L65.601 63.7537C65.6238 63.8148 65.6207 63.8822 65.5924 63.9412C65.5641 64.0001 65.5128 64.046 65.4496 64.0689C65.4206 64.0749 65.3906 64.0749 65.3616 64.0689C65.3115 64.0689 65.2625 64.0543 65.2211 64.0271C65.1797 63.9999 65.1477 63.9613 65.1293 63.9164L64.9075 63.3436ZM64.721 62.8622L64.3513 61.9166L63.9993 62.8622H64.721Z" fill="#5D4037"/>
<path d="M66.0486 63.3063C66.0684 63.2803 66.0937 63.2588 66.1228 63.243C66.1519 63.2272 66.1842 63.2175 66.2175 63.2146C66.2508 63.2117 66.2843 63.2157 66.3159 63.2262C66.3475 63.2368 66.3763 63.2536 66.4006 63.2757C66.6459 63.4767 66.9522 63.5956 67.2736 63.6147C67.4767 63.6188 67.676 63.5619 67.8439 63.452C67.901 63.4189 67.9488 63.3729 67.9832 63.318C68.0175 63.263 68.0374 63.2008 68.0411 63.1368C68.0421 63.0874 68.0274 63.0389 67.9988 62.9978C67.9634 62.9448 67.9166 62.8997 67.8615 62.8656C67.6679 62.7597 67.4554 62.6895 67.2349 62.6589C67.031 62.6254 66.8323 62.5673 66.6435 62.486C66.4718 62.4145 66.3251 62.2968 66.2211 62.147C66.1504 62.0397 66.1137 61.9148 66.1155 61.7877C66.1185 61.6615 66.1518 61.5376 66.2129 61.4259C66.274 61.3142 66.3611 61.2176 66.4675 61.1437C66.6989 60.9896 66.9747 60.909 67.256 60.9132C67.6158 60.9281 67.9627 61.0461 68.2523 61.2522C68.2778 61.2686 68.2997 61.2897 68.3167 61.3143C68.3338 61.3388 68.3455 61.3664 68.3514 61.3954C68.3573 61.4244 68.3572 61.4542 68.3511 61.4832C68.3449 61.5121 68.3329 61.5396 68.3156 61.564C68.2995 61.5895 68.2782 61.6116 68.253 61.6289C68.2277 61.6462 68.1991 61.6584 68.1688 61.6648C68.1385 61.6711 68.1072 61.6715 68.0768 61.6658C68.0463 61.6601 68.0174 61.6486 67.9918 61.6318C67.782 61.4682 67.5253 61.37 67.256 61.3505C67.0739 61.3475 66.8953 61.3997 66.7456 61.4996C66.6951 61.5284 66.6528 61.5689 66.6227 61.6175C66.5925 61.666 66.5755 61.7211 66.5731 61.7776C66.5698 61.8205 66.5809 61.8633 66.6048 61.8996C66.6377 61.9454 66.6795 61.9845 66.728 62.0148C66.9034 62.1141 67.097 62.1797 67.2983 62.208C67.515 62.2451 67.7265 62.3066 67.9284 62.3911C68.1135 62.4695 68.2721 62.5963 68.386 62.7572C68.4568 62.8696 68.4946 62.9985 68.4952 63.13C68.4901 63.265 68.4517 63.3969 68.3831 63.5148C68.3145 63.6327 68.2178 63.7332 68.1009 63.8079C67.8555 63.976 67.5606 64.0639 67.2596 64.0587C66.8302 64.0399 66.4194 63.885 66.0909 63.6181C66.0441 63.5809 66.0138 63.5281 66.0059 63.4702C65.9981 63.4123 66.0133 63.3537 66.0486 63.3063Z" fill="#5D4037"/>
<path d="M69.051 63.3063C69.0704 63.283 69.0945 63.2638 69.1218 63.2496C69.149 63.2355 69.179 63.2268 69.2098 63.2239C69.2406 63.2211 69.2717 63.2242 69.3013 63.2331C69.3308 63.242 69.3583 63.2565 69.3819 63.2757C69.6272 63.4767 69.9335 63.5956 70.2549 63.6147C70.458 63.6192 70.6574 63.5623 70.8252 63.452C70.8823 63.4189 70.9301 63.3729 70.9644 63.318C70.9988 63.263 71.0187 63.2008 71.0223 63.1368C71.0234 63.0874 71.0087 63.0389 70.9801 62.9978C70.9456 62.9441 70.8986 62.8988 70.8428 62.8656C70.6505 62.7595 70.4391 62.6894 70.2197 62.6589C70.0169 62.6258 69.8193 62.5677 69.6318 62.486C69.4596 62.4138 69.312 62.2963 69.2059 62.147C69.1365 62.0392 69.0999 61.9147 69.1003 61.7877C69.1033 61.6615 69.1366 61.5376 69.1977 61.4259C69.2588 61.3142 69.3459 61.2176 69.4523 61.1437C69.6837 60.9896 69.9595 60.909 70.2408 60.9132C70.6006 60.9281 70.9475 61.0461 71.2371 61.2522C71.2626 61.2686 71.2845 61.2897 71.3015 61.3143C71.3186 61.3388 71.3304 61.3664 71.3362 61.3954C71.3421 61.4244 71.342 61.4542 71.3359 61.4832C71.3297 61.5121 71.3177 61.5396 71.3004 61.564C71.2843 61.5895 71.263 61.6116 71.2378 61.6289C71.2125 61.6462 71.1839 61.6584 71.1536 61.6648C71.1233 61.6711 71.092 61.6715 71.0616 61.6658C71.0311 61.6601 71.0022 61.6486 70.9766 61.6318C70.7668 61.4682 70.5101 61.37 70.2408 61.3505C70.0587 61.3475 69.8801 61.3997 69.7304 61.4996C69.6799 61.5284 69.6376 61.5689 69.6075 61.6175C69.5773 61.666 69.5603 61.7211 69.5579 61.7776C69.5546 61.8205 69.5657 61.8633 69.5896 61.8996C69.6225 61.9454 69.6643 61.9845 69.7128 62.0148C69.8885 62.1134 70.082 62.179 70.2831 62.208C70.4998 62.2451 70.7113 62.3066 70.9132 62.3911C71.0977 62.4689 71.2553 62.5959 71.3673 62.7572C71.4406 62.8686 71.4785 62.9981 71.4764 63.13C71.472 63.2648 71.4343 63.3966 71.3663 63.5145C71.2984 63.6324 71.2022 63.733 71.0857 63.8079C70.8394 63.9767 70.5431 64.0646 70.2408 64.0587C69.8115 64.0399 69.4006 63.885 69.0721 63.6181C69.0293 63.5778 69.0034 63.5236 68.9995 63.4661C68.9956 63.4085 69.014 63.3516 69.051 63.3063Z" fill="#5D4037"/>
<path d="M76.2925 61.3572L75.173 63.9162C75.1684 63.9315 75.1599 63.9455 75.1484 63.9569C75.1484 63.9569 75.1484 63.9739 75.1273 63.984C75.1062 63.9942 75.1273 63.984 75.1273 63.984L75.0956 64.0044C75.0956 64.0044 75.0745 64.0281 75.0534 64.0315H75.0146H74.9055H74.8738C74.8579 64.0274 74.8441 64.0177 74.8351 64.0044L74.8034 63.984C74.8034 63.984 74.8034 63.9671 74.7858 63.9569C74.7838 63.9434 74.7838 63.9297 74.7858 63.9162L74.1874 62.5604L73.5889 63.9162C73.5889 63.9162 73.5889 63.9467 73.5713 63.9569L73.5432 63.984C73.5324 63.9888 73.5228 63.9958 73.515 64.0044L73.4798 64.0315C73.4682 64.0291 73.4562 64.0291 73.4446 64.0315H73.332H73.2968C73.2807 64.0257 73.2663 64.0164 73.2545 64.0044C73.2545 64.0044 73.2369 64.0044 73.2228 63.984L73.2017 63.9569C73.2017 63.9569 73.2017 63.9298 73.1771 63.9162L72.0541 61.3538C72.0338 61.2959 72.0372 61.2327 72.0635 61.1771C72.0898 61.1215 72.137 61.0777 72.1957 61.0544C72.2544 61.0311 72.32 61.0302 72.3794 61.0518C72.4387 61.0734 72.4873 61.1159 72.5153 61.1707L73.4094 63.2044L74.0008 61.8486C74.0203 61.8041 74.0532 61.7661 74.0952 61.7395C74.1372 61.713 74.1864 61.6991 74.2367 61.6995C74.2871 61.7001 74.3363 61.7144 74.3787 61.7408C74.4211 61.7672 74.4548 61.8046 74.476 61.8486L75.0639 63.2044L75.9545 61.1707C75.9809 61.1116 76.0305 61.0649 76.0924 61.0407C76.1544 61.0166 76.2238 61.017 76.2854 61.0419C76.3258 61.0849 76.3487 61.1404 76.35 61.1983C76.3513 61.2562 76.3309 61.3126 76.2925 61.3572Z" fill="#5D4037"/>
<path d="M79.4888 61.3743C79.7852 61.6747 79.9505 62.0733 79.9505 62.4877C79.9505 62.9021 79.7852 63.3007 79.4888 63.6012C79.3501 63.7471 79.1815 63.864 78.9938 63.9445C78.806 64.0249 78.6031 64.0673 78.3976 64.0689C78.1878 64.0678 77.9805 64.0258 77.7881 63.9454C77.5957 63.865 77.4222 63.7479 77.2781 63.6012C76.9887 63.2973 76.8281 62.9 76.8281 62.4877C76.8281 62.0754 76.9887 61.6781 77.2781 61.3743C77.4217 61.2269 77.5951 61.1094 77.7876 61.0289C77.9801 60.9485 78.1877 60.9068 78.3976 60.9065C78.6032 60.9073 78.8064 60.9493 78.9943 61.0298C79.1822 61.1103 79.3506 61.2276 79.4888 61.3743ZM79.429 62.486C79.429 62.2023 79.3185 61.9289 79.1192 61.72C79.0284 61.6222 78.9172 61.5439 78.7928 61.4901C78.6685 61.4364 78.5338 61.4085 78.3976 61.4081C78.2585 61.4072 78.1208 61.4344 77.9934 61.4882C77.866 61.5419 77.7518 61.6209 77.6583 61.72C77.4578 61.9282 77.3471 62.2021 77.3485 62.486C77.3456 62.7702 77.4566 63.0446 77.6583 63.252C77.7521 63.3511 77.8662 63.4303 77.9935 63.4845C78.1208 63.5388 78.2584 63.567 78.3976 63.5673C78.5339 63.5655 78.6684 63.5365 78.7926 63.4823C78.9168 63.428 79.028 63.3496 79.1192 63.252C79.3143 63.0416 79.4199 62.7681 79.4149 62.486H79.429Z" fill="#5D4037"/>
<path d="M82.9493 63.7062C82.9603 63.7362 82.9649 63.768 82.9628 63.7998C82.9608 63.8315 82.9521 63.8626 82.9373 63.891C82.9225 63.9195 82.902 63.9448 82.8768 63.9654C82.8517 63.9861 82.8225 64.0017 82.7909 64.0112C82.7571 64.0165 82.7227 64.0165 82.6889 64.0112C82.6266 64.0126 82.5653 63.9961 82.5128 63.9638C82.4507 63.926 82.3998 63.8735 82.365 63.8112C82.2924 63.6441 82.2599 63.4634 82.2699 63.2825C82.2694 63.2155 82.2499 63.1498 82.2136 63.0927C82.1797 63.0403 82.1324 62.9971 82.0763 62.9672C81.9985 62.9189 81.9128 62.8834 81.8229 62.8622H81.2843V63.8146C81.2838 63.8467 81.2768 63.8783 81.2636 63.9078C81.2505 63.9372 81.2314 63.9639 81.2076 63.9862C81.1837 64.0086 81.1555 64.0262 81.1246 64.038C81.0936 64.0499 81.0606 64.0557 81.0273 64.0553C80.961 64.0553 80.8974 64.0299 80.8506 63.9848C80.8037 63.9397 80.7774 63.8784 80.7774 63.8146V61.2216C80.7769 61.1899 80.783 61.1584 80.7954 61.129C80.8078 61.0996 80.8262 61.0729 80.8495 61.0505C80.8728 61.028 80.9006 61.0103 80.9311 60.9984C80.9616 60.9864 80.9943 60.9805 81.0273 60.981H81.844C82.0453 60.9802 82.2419 61.0394 82.4069 61.1505C82.5718 61.2616 82.697 61.4191 82.7653 61.6015C82.8335 61.7838 82.8415 61.982 82.7881 62.1689C82.7347 62.3558 82.6226 62.5222 82.4671 62.6452C82.5277 62.6919 82.5811 62.7467 82.6255 62.8079C82.7246 62.9477 82.7774 63.1132 82.7769 63.2825C82.7702 63.3698 82.7761 63.4577 82.7945 63.5435C82.8327 63.5554 82.867 63.5766 82.8942 63.6051C82.9213 63.6337 82.9403 63.6685 82.9493 63.7062ZM82.3051 61.9368C82.3056 61.8771 82.2937 61.8178 82.2702 61.7625C82.2467 61.7072 82.2119 61.6569 82.168 61.6147C82.1241 61.5724 82.072 61.539 82.0145 61.5163C81.9571 61.4936 81.8955 61.4822 81.8334 61.4826H81.2737V62.3876H81.8334C81.9579 62.3876 82.0774 62.3402 82.1657 62.2558C82.2541 62.1714 82.3042 62.0567 82.3051 61.9368Z" fill="#5D4037"/>
<path d="M83.6924 63.8283V61.2353C83.6919 61.2036 83.6981 61.1721 83.7105 61.1427C83.7229 61.1133 83.7413 61.0866 83.7646 61.0641C83.7879 61.0417 83.8156 61.024 83.8461 61.012C83.8767 61.0001 83.9094 60.9942 83.9423 60.9947H84.4809C84.8914 61.0132 85.2786 61.1833 85.5623 61.4695C85.8459 61.7557 86.0041 62.1362 86.0041 62.5318C86.0041 62.9274 85.8459 63.3079 85.5623 63.5941C85.2786 63.8803 84.8914 64.0504 84.4809 64.0689H83.9423C83.8761 64.0689 83.8125 64.0436 83.7656 63.9985C83.7187 63.9533 83.6924 63.8921 83.6924 63.8283ZM84.1993 63.5809H84.4809C84.7592 63.5656 85.0208 63.4485 85.2122 63.2534C85.4036 63.0583 85.5103 62.8001 85.5103 62.5318C85.5103 62.2634 85.4036 62.0053 85.2122 61.8102C85.0208 61.6151 84.7592 61.498 84.4809 61.4827H84.1993V63.5809Z" fill="#5D4037"/>
<path d="M138.297 23.6757C138.297 23.6757 135.611 44.3722 131.197 49.0294C125.917 54.6153 122.044 53.7984 119.932 56.6795C117.792 53.795 113.948 54.6153 108.667 49.026C104.253 44.3688 101.574 23.6723 101.574 23.6723C113.191 18.2491 119.95 12.1479 119.95 12.1479C120.126 12.3412 126.849 18.3271 138.297 23.6757Z" fill="#37474F"/>
<path d="M119.919 12.1547V56.6795C117.778 53.795 113.934 54.6153 108.654 49.026C104.239 44.3688 101.561 23.6723 101.561 23.6723C113.177 18.2491 119.936 12.1479 119.936 12.1479L119.919 12.1547Z" fill="#455A64"/>
<path d="M135.46 25.3436C135.46 25.3436 133.193 42.8267 129.476 46.762C124.995 51.487 121.731 50.7921 119.94 53.2258C118.134 50.7921 114.885 51.487 110.403 46.762C106.679 42.8267 104.419 25.3436 104.419 25.3436C114.24 20.7508 119.943 15.6055 119.943 15.6055C119.943 15.6055 125.621 20.7508 135.46 25.3436Z" fill="#455A64"/>
<path d="M104.395 25.3435C104.395 25.3435 106.662 42.8233 110.379 46.7619C114.853 51.4835 118.099 50.7954 119.908 53.2223V15.5986C119.746 15.7851 114.065 20.8219 104.395 25.3435Z" fill="#37474F"/>
<path d="M125.01 39.3179C127.822 36.6109 127.822 32.2221 125.01 29.5151C122.199 26.8082 117.641 26.8082 114.83 29.5151C112.018 32.2221 112.018 36.6109 114.83 39.3179C117.641 42.0248 122.199 42.0248 125.01 39.3179Z" fill="#5D4037"/>
<path d="M119.098 38.9183L115.891 35.7084L117.08 34.6068L118.848 36.3761L122.657 30.7495L124.04 31.6172L119.098 38.9183Z" fill="white"/>
<path d="M13.7913 73.4341H38.4893V68.5091H13.7913V73.4341Z" fill="#C7C7C7"/>
<path d="M31.8604 73.3936L32.5503 79.6879L41.0904 138.611H43.5299L36.7922 79.6879L36.2466 73.3936H31.8604Z" fill="#C7C7C7"/>
<path d="M8.74316 138.611H11.1862L19.7263 79.6879L20.4163 73.3936H16.03L15.4844 79.6879L8.74316 138.611Z" fill="#C7C7C7"/>
<path d="M12.8653 119.362H40.1084V117.884H12.8653V119.362Z" fill="#C7C7C7"/>
<path d="M36.7922 79.4676H32.5503L31.8604 73.3936H36.2466L36.7922 79.4676Z" fill="#A6A6A6"/>
<path d="M15.4844 79.4676H19.7263L20.4162 73.3936H16.03L15.4844 79.4676Z" fill="#A6A6A6"/>
<path d="M17.086 44.8401C18.1421 45.3621 18.3251 47.1619 21.613 47.0636C22.0812 47.0636 22.4649 46.8704 22.8944 47.023C23.5245 47.2433 24.0209 47.728 24.5806 48.0805C25.0308 48.3719 25.5433 48.5619 26.0802 48.6364C27.1103 48.7536 28.1507 48.5224 29.0231 47.9822C29.5617 47.6636 30.0123 47.2229 30.5333 46.8772C31.0543 46.5315 34.1979 45.7993 34.7294 44.0978C35.0814 43.0165 35.0145 41.7862 33.6733 40.2066C33.3644 39.9249 33.1541 39.5577 33.0714 39.1559C33.0723 38.8037 33.1553 38.4562 33.3143 38.139C33.4987 37.779 33.5662 37.3739 33.5079 36.9764C33.3582 36.5964 33.1169 36.256 32.8038 35.9833C32.311 35.4105 32.4025 34.5834 32.8038 33.5666C32.963 33.1351 33.0172 32.6742 32.9622 32.2193C32.9073 31.7645 32.7447 31.3279 32.487 30.9431C32.1639 30.5022 31.7829 30.1034 31.3535 29.7567C30.7515 29.2076 30.6495 28.6992 30.3784 27.923C29.868 26.4316 29.0689 25.7639 28.129 25.3029C27.2806 24.8928 27.3088 25.0487 26.4005 25.1809C25.4804 24.6402 24.3971 24.4156 23.3274 24.5436C22.3347 24.6657 21.5145 25.3063 20.7646 25.9198C20.0958 26.4689 19.4833 27.0587 19.4481 27.984C19.427 28.5162 19.5607 29.0449 19.5361 29.5771C19.5009 30.255 19.1101 30.6855 18.6419 31.1125C17.9438 31.6842 17.4623 32.4626 17.2726 33.3259C17.1494 34.0479 17.8886 35.1698 17.0226 36.2375C16.2623 37.1798 14.9105 38.2712 14.5585 39.4508C13.4848 43.1352 16.0898 44.3385 17.086 44.8401Z" fill="#263238"/>
<path d="M29.8186 46.8261C31.3288 46.6058 33.6486 46.8804 34.4512 45.2602C34.7688 45.011 35.0204 44.6926 35.185 44.3313C35.3497 43.97 35.4227 43.5762 35.3982 43.1824C35.2945 42.3413 34.89 41.5611 34.2541 40.9758C33.8851 40.6414 33.5632 40.262 33.2966 39.8471C33.2114 39.5239 33.149 39.1955 33.11 38.8642C33.1722 38.4401 33.2905 38.0255 33.462 37.6304C33.1311 38.3083 32.8249 39.0404 33.1311 39.7861C33.1761 39.8925 33.229 39.9956 33.2895 40.0946C33.3996 40.4867 33.5505 40.8672 33.7401 41.23C34.2365 42.1791 34.6906 43.0367 34.6237 44.145C34.612 44.5153 34.5197 44.8791 34.3526 45.2127C33.6994 45.7644 32.8834 46.1057 32.0187 46.1889C31.9976 46.1889 31.9976 46.2262 32.0187 46.2228C32.8006 46.1467 33.5506 45.8846 34.2013 45.4602C33.3247 46.6702 31.2865 46.5041 29.8115 46.7855C29.7728 46.7855 29.7869 46.8295 29.8186 46.8261ZM34.5674 44.9856V44.9551C34.8288 44.057 34.7617 43.0997 34.3773 42.2435C34.1379 41.6775 33.7788 41.169 33.543 40.5996C33.5043 40.5013 33.4655 40.403 33.4303 40.3013C33.7824 40.7453 34.2259 41.1148 34.5568 41.5487C35.2609 42.4909 35.4862 43.6129 34.8138 44.6331C34.741 44.7565 34.6587 44.8743 34.5674 44.9856Z" fill="#263238"/>
<path d="M31.1567 29.5363C31.7202 30.0078 32.2572 30.5079 32.7654 31.0345C33.12 31.3801 33.3326 31.8377 33.3639 32.3225C33.377 32.811 33.2168 33.2893 32.9097 33.6783C32.7971 33.841 32.6809 34.0173 32.5788 34.1766C32.5547 34.4921 32.6065 34.8088 32.7302 35.1019C32.9766 35.6612 33.5223 36.0069 33.7863 36.573C34.1946 37.4882 33.7405 38.2406 33.3392 39.0575C33.6314 38.3796 34.0433 37.7254 33.8109 36.9662C33.6279 36.3459 33.1562 36.0103 32.8006 35.5053C32.5842 35.1845 32.4625 34.8131 32.4486 34.4308C32.1318 35.0477 32.0226 35.6985 32.5824 36.3459C32.607 36.3764 32.5824 36.4171 32.5401 36.39C31.8361 35.712 32.0191 34.8613 32.4521 34.1325C32.4788 33.7021 32.5774 33.2786 32.7443 32.8784C32.7443 32.8377 32.8253 32.8784 32.8182 32.9089C32.7549 33.2275 32.6704 33.5461 32.6246 33.8614L32.6985 33.7563C33.2618 32.9801 33.4835 32.0615 32.8358 31.2481C32.35 30.6278 31.6882 30.1397 31.1461 29.5533C31.1215 29.5465 31.1426 29.5228 31.1567 29.5363Z" fill="#263238"/>
<path d="M35.3912 93.5374C35.3912 93.5374 29.0865 107.021 29.0794 107.031C27.8614 109.604 26.837 111.878 26.4252 113.105C26.4224 113.112 26.4224 113.119 26.4252 113.125C26.295 113.402 26.2335 113.703 26.2456 114.007C26.2456 114.007 26.2456 114.024 26.2456 114.027C26.7948 114.898 47.8598 124.873 48.7188 124.992C49.5777 125.111 49.9685 122.762 49.4721 121.745C48.9758 120.728 42.6816 113.434 42.6816 113.434L48.8631 99.8961L35.3912 93.5374Z" fill="#EB9481"/>
<path d="M30.3753 104.252C30.3753 104.252 29.0869 107.011 29.0799 107.021C27.8619 109.594 26.8375 111.868 26.4256 113.095C26.4229 113.101 26.4229 113.109 26.4256 113.115C26.3288 113.401 26.2685 113.697 26.2461 113.997C26.2461 113.997 26.2461 114.014 26.2461 114.017C26.7952 114.888 47.8603 124.863 48.7192 124.982C49.5782 125.101 49.9689 122.752 49.4726 121.735C48.9762 120.718 42.6821 113.424 42.6821 113.424L44.0373 110.631L30.3753 104.252Z" fill="#EBEBEB"/>
<path d="M48.7126 124.965C47.8537 124.857 26.7816 114.891 26.2289 114.02C26.0142 113.681 27.3413 110.651 29.0451 107.021L29.0979 106.906L42.7705 113.19L42.6508 113.41C42.6508 113.41 48.9485 120.701 49.4483 121.718C49.9482 122.735 49.568 125.077 48.7126 124.965Z" fill="#263238"/>
<path d="M49.4061 124.389C49.7123 124.707 49.0083 125.89 48.702 125.86C48.3958 125.829 25.4685 114.864 25.1165 114.593C24.7644 114.322 25.5987 113.044 26.0881 113.19C26.5774 113.336 49.4061 124.389 49.4061 124.389Z" fill="#5D4037"/>
<path d="M43.7872 113.99C42.5164 113.078 40.7034 112.474 39.144 112.929C39.0841 112.929 39.1123 113.03 39.1651 113.037C40.7128 113.253 42.2317 113.629 43.6956 114.159C43.7179 114.164 43.7413 114.162 43.7621 114.153C43.7829 114.144 43.8 114.128 43.8106 114.109C43.8211 114.089 43.8245 114.067 43.8203 114.045C43.8161 114.024 43.8044 114.004 43.7872 113.99Z" fill="white"/>
<path d="M44.4981 115.054C43.2273 114.139 41.4144 113.539 39.8549 113.993C39.7951 114.01 39.8232 114.091 39.876 114.102C41.4236 114.316 42.9426 114.691 44.4066 115.22C44.4289 115.228 44.4535 115.228 44.4757 115.22C44.4979 115.211 44.5163 115.196 44.5275 115.175C44.5386 115.155 44.5418 115.132 44.5364 115.109C44.531 115.087 44.5174 115.067 44.4981 115.054Z" fill="white"/>
<path d="M45.2097 116.115C43.9389 115.203 42.1224 114.6 40.5665 115.054C40.5067 115.074 40.5313 115.156 40.5665 115.163C42.1154 115.378 43.6356 115.754 45.1006 116.285C45.1239 116.298 45.152 116.303 45.1788 116.297C45.2055 116.291 45.2287 116.275 45.2431 116.252C45.2576 116.23 45.2622 116.203 45.2559 116.177C45.2497 116.151 45.233 116.129 45.2097 116.115Z" fill="white"/>
<path d="M31.435 110.824C30.2803 109.366 27.9147 111.088 29.0799 112.549C30.2451 114.01 32.5896 112.285 31.435 110.824Z" fill="white"/>
<path d="M39.109 81.8163C38.9682 85.738 31.118 102.675 31.118 102.675L44.8857 108.777C44.8857 108.777 55.999 89.941 54.9676 81.2638C54.0876 73.9018 34.8495 60.2861 31.7622 56.4491C31.3046 55.8797 31.4595 53.5884 31.4595 53.5884H18.9697V56.4593C23.7396 66.2076 38.0071 77.9014 39.0632 81.335C39.1049 81.4921 39.1203 81.6546 39.109 81.8163Z" fill="#37474F"/>
<path d="M44.8081 105.946C42.5411 104.899 43.2064 105.167 40.9359 104.147C39.8199 103.648 34.2228 101.123 33.0963 100.842C33.0902 100.839 33.0833 100.839 33.077 100.841C33.0708 100.843 33.0657 100.848 33.0629 100.854C33.0601 100.86 33.0598 100.866 33.0621 100.872C33.0644 100.878 33.0691 100.883 33.0752 100.886C34.0397 101.516 39.6967 103.913 40.8197 104.391C43.1184 105.367 42.4707 105.069 44.78 106.011C44.8187 106.031 44.8504 105.963 44.8081 105.946Z" fill="#263238"/>
<path d="M22.1092 58.5098C25.8792 64.0425 30.0941 69.2818 34.7152 74.1796C35.8487 75.3693 37.0139 76.5252 38.1791 77.6844C39.1648 78.6639 40.1716 79.752 40.4144 81.1451C40.689 82.6975 40.0624 84.2431 39.559 85.6904C39.0064 87.2835 38.4502 88.8732 37.8623 90.4561C37.2286 92.1509 34.6378 98.3164 34.2118 99.1468C33.9971 99.5604 37.6405 90.673 38.2319 89.0325C38.8233 87.392 39.4217 85.7616 39.9251 84.1007C40.2167 83.255 40.3363 82.3631 40.2772 81.4739C40.1628 80.6165 39.8074 79.8054 39.2493 79.1283C38.2354 77.8267 36.9189 76.7218 35.7677 75.5354C33.381 73.0746 31.1058 70.5189 28.942 67.8683C26.4796 64.8743 24.1813 61.7585 22.0564 58.5336C22.0548 58.5302 22.0539 58.5266 22.0537 58.5229C22.0536 58.5193 22.0542 58.5156 22.0555 58.5121C22.0568 58.5087 22.0588 58.5055 22.0614 58.5028C22.0639 58.5 22.0671 58.4978 22.0705 58.4963C22.074 58.4947 22.0777 58.4938 22.0816 58.4937C22.0854 58.4935 22.0892 58.4941 22.0928 58.4953C22.0964 58.4966 22.0997 58.4985 22.1025 58.501C22.1053 58.5035 22.1076 58.5065 22.1092 58.5098Z" fill="#263238"/>
<path d="M14.7166 122.935C14.7166 122.935 14.1041 137.716 14.1006 137.726C14.171 140.553 14.2836 143.031 14.4526 144.306C14.4512 144.313 14.4512 144.321 14.4526 144.329C14.4689 144.634 14.5593 144.932 14.7166 145.197V145.214C15.6037 145.763 39.0837 145.892 39.9039 145.631C40.7241 145.37 40.0165 143.095 39.1118 142.39C38.2071 141.685 29.2305 137.767 29.2305 137.767L29.6987 122.996L14.7166 122.935Z" fill="#EB9481"/>
<path d="M14.214 134.802C14.214 134.802 14.0943 137.717 14.0908 137.727C14.1612 140.554 14.2739 143.031 14.4428 144.306C14.4414 144.314 14.4414 144.322 14.4428 144.33C14.4991 144.628 14.5913 144.919 14.7174 145.197V145.214C15.6045 145.763 39.0845 145.892 39.9047 145.631C40.7249 145.37 40.0173 143.096 39.1126 142.391C38.2079 141.686 29.2313 137.767 29.2313 137.767L29.3264 134.778L14.214 134.802Z" fill="#EBEBEB"/>
<path d="M39.8867 145.604C39.0665 145.865 15.5971 145.76 14.6959 145.211C14.3439 145.007 14.1714 141.713 14.0693 137.723V137.598L29.2063 137.503V137.75C29.2063 137.75 38.1759 141.662 39.0911 142.367C40.0064 143.072 40.7104 145.346 39.8867 145.604Z" fill="#263238"/>
<path d="M40.2488 144.797C40.6677 144.957 40.5727 146.316 40.2664 146.421C39.9602 146.526 14.3646 146.306 13.9281 146.211C13.4916 146.116 13.6605 144.611 14.1675 144.536C14.6744 144.462 40.2488 144.797 40.2488 144.797Z" fill="#5D4037"/>
<path d="M30.4805 137.808C28.9245 137.52 27.0166 137.744 25.8232 138.805C25.7775 138.845 25.8232 138.91 25.8866 138.893C27.3746 138.438 28.9087 138.138 30.4629 137.998C30.489 138 30.515 137.992 30.5352 137.976C30.5553 137.96 30.5679 137.937 30.5703 137.911C30.5726 137.886 30.5644 137.861 30.5476 137.842C30.5308 137.822 30.5066 137.81 30.4805 137.808Z" fill="white"/>
<path d="M31.6142 138.462C30.0583 138.174 28.1538 138.398 26.9569 139.459C26.9112 139.499 26.9569 139.564 27.0238 139.547C28.5116 139.092 30.0458 138.792 31.6001 138.652C31.6263 138.654 31.6521 138.645 31.6719 138.629C31.6917 138.612 31.7039 138.589 31.7057 138.564C31.7076 138.539 31.699 138.514 31.6818 138.495C31.6647 138.476 31.6403 138.464 31.6142 138.462Z" fill="white"/>
<path d="M32.7232 139.12C31.1673 138.832 29.2593 139.052 28.066 140.116C28.0167 140.157 28.066 140.221 28.1293 140.204C29.6171 139.749 31.1514 139.449 32.7056 139.309C32.7318 139.312 32.7578 139.304 32.7779 139.288C32.798 139.271 32.8107 139.248 32.813 139.223C32.8153 139.198 32.8072 139.173 32.7904 139.153C32.7735 139.134 32.7494 139.122 32.7232 139.12Z" fill="white"/>
<path d="M17.9313 140.15C16.231 139.323 14.8933 141.865 16.5936 142.692C18.2939 143.519 19.6457 140.981 17.9313 140.15Z" fill="white"/>
<path d="M29.6435 133.015L14.2953 133.137C14.2953 133.137 16.851 72.7799 15.1402 70.8072C11.0708 66.1195 11.7185 59.8692 14.4608 53.5918H28.4467C28.4467 53.5918 27.7743 63.1231 27.8412 63.4011C32.1429 81.4672 29.6435 133.015 29.6435 133.015Z" fill="#37474F"/>
<path d="M28.7984 129.988C25.4507 129.738 16.6325 130.012 15.5201 130.175C15.5149 130.177 15.5106 130.181 15.5076 130.186C15.5045 130.191 15.5029 130.196 15.5029 130.202C15.5029 130.208 15.5045 130.213 15.5076 130.218C15.5106 130.223 15.5149 130.227 15.5201 130.229C16.6219 130.443 26.732 130.138 28.7949 130.06C28.8029 130.058 28.8101 130.053 28.8153 130.047C28.8205 130.041 28.8235 130.033 28.8239 130.025C28.8243 130.017 28.8221 130.009 28.8175 130.003C28.8129 129.996 28.8062 129.991 28.7984 129.988Z" fill="#263238"/>
<path d="M28.7768 57.2965C28.636 58.9912 28.7064 61.913 27.6821 61.9571C26.6577 62.0011 26.8372 58.4421 26.809 57.6219C26.7809 56.8796 26.5169 56.9812 26.4887 57.8557C26.4113 60.2284 26.4887 62.3265 27.7841 62.2282C29.0796 62.1299 29.0831 58.4523 29.0514 57.6117C29.0338 57.1778 28.8191 56.7575 28.7768 57.2965Z" fill="#263238"/>
<path d="M27.7419 62.069C27.6781 62.6682 27.6911 63.2727 27.7806 63.8688C27.7982 63.9163 27.9953 63.8688 28.0165 63.8383C28.1361 63.5909 28.0411 62.4249 28.0728 62.1096C28.0784 62.0674 28.0663 62.0247 28.0393 61.991C28.0259 61.9744 28.0092 61.9604 27.9902 61.9499C27.9711 61.9394 27.9502 61.9327 27.9285 61.93C27.8846 61.9246 27.8403 61.9362 27.8053 61.9623C27.7703 61.9883 27.7475 62.0267 27.7419 62.069Z" fill="#263238"/>
<path d="M28.1819 64.1704C28.6184 65.6618 29.0655 68.5157 28.9599 69.2546C28.9599 69.3224 28.8472 69.3462 28.8332 69.275C28.6924 68.4751 28.0728 64.6279 28.0094 64.2246C27.9461 63.8212 28.0587 63.7534 28.1819 64.1704Z" fill="#263238"/>
<path d="M25.4892 65.3466C25.6934 65.1539 25.9123 64.976 26.1439 64.8145C26.3727 64.6416 26.6015 64.4755 26.848 64.3094C27.3338 63.9705 27.8336 63.679 28.3441 63.3875C28.8545 63.096 29.3544 62.8418 29.8754 62.5876C30.3964 62.3334 30.9948 62.1232 31.5369 61.8622C31.5686 61.8453 31.5968 61.8893 31.5651 61.9063C31.0511 62.1808 30.5724 62.5232 30.0725 62.8248C29.5726 63.1265 29.0727 63.4383 28.5694 63.74C28.066 64.0417 27.5907 64.3366 27.0979 64.6281C26.8421 64.7817 26.5816 64.9309 26.3164 65.0755C26.0791 65.2228 25.8321 65.3552 25.5772 65.4721C25.4927 65.5026 25.4434 65.3975 25.4892 65.3466Z" fill="#263238"/>
<path d="M16.6071 101.611C16.8289 96.7742 17.1809 91.3713 17.2654 86.5413C17.3053 84.1212 17.3241 81.6999 17.3217 79.2775C17.3217 76.8744 17.3217 73.6645 17.2091 71.2647C17.1422 70.0445 14.9103 69.1022 14.4562 65.55C14.1416 63.5269 14.3089 61.4614 14.9456 59.5098C15.1039 59.0354 15.2908 58.5703 15.5053 58.1167C15.5053 58.0862 15.5651 58.1167 15.551 58.1438C14.6577 60.1385 14.2866 62.3139 14.4703 64.4789C14.5352 65.5703 14.7726 66.6459 15.1744 67.6684C15.7728 69.1022 17.2478 70.2648 17.3252 71.0274C17.4414 72.1629 17.459 73.1459 17.4731 74.2881C17.4872 75.4304 17.5012 76.6608 17.5083 77.8471C17.5224 80.2695 17.5153 82.6908 17.4872 85.1109C17.4308 89.9308 17.2994 94.7484 17.0929 99.5638C16.8817 104.38 15.5862 128.497 15.5017 129.053C15.5017 129.114 15.3891 129.1 15.3926 129.053C15.5475 126.622 16.3818 106.448 16.6071 101.611Z" fill="#263238"/>
<path d="M24.8978 42.4675C28.228 49.0839 32.4558 56.2493 36.4125 57.3814C40.1792 58.4491 47.4801 49.5449 49.7894 47.2129C50.6131 46.3655 43.9212 41.5185 42.8827 42.254C40.9255 43.6403 37.4087 47.4162 36.8173 47.2841C36.2259 47.1519 31.2871 42.6302 26.8375 38.834C24.141 36.5325 22.5921 37.8815 24.8978 42.4675Z" fill="#EB9481"/>
<path d="M55.5796 43.0133C56.4949 42.6438 63.5424 42.4269 63.5424 40.9558C63.5424 39.4848 54.5693 39.8983 54.5693 39.8983L55.5796 43.0133Z" fill="#EB9481"/>
<path d="M42.0625 43.1859C43.2946 41.7115 44.3788 40.1353 45.449 39.8303C46.1917 39.6269 54.1686 39.9591 55.4183 39.8879C56.6679 39.8167 61.1105 39.9252 61.2161 40.976C61.3604 42.464 56.0941 42.4504 55.5344 43.213C53.5948 45.8365 46.2199 49.7209 46.2199 49.7209L42.0625 43.1859Z" fill="#EB9481"/>
<path d="M61.3318 40.9997C61.2547 40.7207 61.0728 40.4791 60.8214 40.3218C60.2757 39.9557 59.5576 39.9218 58.9169 39.8744C57.9454 39.7869 56.968 39.779 55.9951 39.8506C55.9905 39.8506 55.986 39.8524 55.9827 39.8556C55.9794 39.8588 55.9775 39.8631 55.9775 39.8676C55.9775 39.8721 55.9794 39.8764 55.9827 39.8796C55.986 39.8828 55.9905 39.8845 55.9951 39.8845C56.7238 39.8845 57.4525 39.9015 58.1812 39.9591C58.8486 39.9861 59.5109 40.0838 60.1561 40.2506C60.4477 40.3253 60.7114 40.4781 60.9164 40.6912C60.9891 40.7657 61.0411 40.8566 61.0676 40.9556C61.094 41.0545 61.0941 41.1583 61.0678 41.2573C60.8531 41.9047 59.5259 42.0979 58.9134 42.2301C58.1143 42.403 57.2835 42.569 56.4774 42.7114C56.4422 42.7114 56.4774 42.7724 56.495 42.7656C57.3293 42.6063 58.2129 42.5419 59.0507 42.3962C59.7301 42.2775 60.4588 42.1454 61.0079 41.7183C61.1261 41.6395 61.2191 41.5304 61.2763 41.4035C61.3336 41.2765 61.3528 41.1366 61.3318 40.9997Z" fill="#263238"/>
<path d="M48.9268 37.7957L49.1589 36.6513L63.0271 39.259C63.1526 39.2826 63.2633 39.3532 63.3347 39.4554C63.4061 39.5576 63.4325 39.6829 63.408 39.8037L63.3608 40.0366C63.3362 40.1575 63.2629 40.264 63.1568 40.3328C63.0507 40.4016 62.9205 40.427 62.795 40.4034L48.9268 37.7957Z" fill="#5D4037"/>
<path opacity="0.1" d="M49.1579 36.6535L48.9258 37.7979L50.598 38.1123L50.8301 36.9679L49.1579 36.6535Z" fill="black"/>
<path d="M43.8542 35.1969L43.4458 37.2306C43.3058 37.9183 43.4552 38.6314 43.8612 39.213C44.2672 39.7947 44.8965 40.1972 45.6108 40.332C46.325 40.4668 47.0656 40.323 47.6696 39.932C48.2737 39.5411 48.6917 38.9352 48.8318 38.2474L49.2436 36.2137C49.313 35.873 49.3119 35.5224 49.2406 35.1821C49.1692 34.8417 49.0289 34.5183 48.8277 34.2301C48.6266 33.9419 48.3684 33.6948 48.068 33.5027C47.7676 33.3106 47.4308 33.1774 47.0769 33.1106C46.7231 33.0439 46.359 33.0449 46.0055 33.1136C45.652 33.1823 45.3161 33.3173 45.0168 33.5111C44.4124 33.9023 43.9942 34.5087 43.8542 35.1969ZM48.3812 35.7019C48.3073 36.0029 48.1383 36.2743 47.8974 36.4789C47.6566 36.6835 47.3558 36.8111 47.0365 36.8442C47.3179 36.9923 47.5456 37.2198 47.6891 37.496C47.8325 37.7723 47.8848 38.0841 47.8391 38.3898C47.6736 39.1965 46.7513 39.7049 45.7762 39.5219C44.8011 39.3389 44.1428 38.5322 44.3048 37.7289C44.3803 37.4281 44.5502 37.1571 44.7915 36.9527C45.0328 36.7483 45.3336 36.6204 45.653 36.5866C45.3702 36.4399 45.1413 36.2127 44.9976 35.9361C44.854 35.6594 44.8026 35.3468 44.8504 35.041C45.0158 34.2309 45.9381 33.7292 46.9133 33.9122C47.8884 34.0953 48.5466 34.8952 48.3812 35.7019Z" fill="#5D4037"/>
<path d="M49.2628 36.1359L48.8208 38.3148C48.7974 38.4306 48.8758 38.5427 48.996 38.5653L49.1065 38.5861C49.2268 38.6087 49.3432 38.5332 49.3667 38.4175L49.8086 36.2385C49.8321 36.1228 49.7537 36.0106 49.6335 35.988L49.5229 35.9672C49.4027 35.9446 49.2862 36.0201 49.2628 36.1359Z" fill="#5D4037"/>
<path d="M49.8087 36.2394L49.3667 38.4183C49.3432 38.5341 49.4217 38.6463 49.5419 38.6689L49.6524 38.6896C49.7727 38.7123 49.8891 38.6367 49.9126 38.521L50.3545 36.342C50.378 36.2263 50.2996 36.1141 50.1794 36.0915L50.0688 36.0707C49.9486 36.0481 49.8321 36.1236 49.8087 36.2394Z" fill="#5D4037"/>
<path d="M59.7061 38.1458L60.1179 38.2237L60.3503 37.0679L60.7058 37.1357L60.5826 37.739L60.9945 37.817L61.1177 37.2136L61.4275 37.2713L61.2374 38.2237L61.6492 38.3017L61.8428 37.3492L62.2864 37.434L62.0294 38.705L62.4413 38.783L62.6983 37.5119L63.1172 37.5899L62.7898 39.2135L59.1006 38.522L59.428 36.895L59.9384 36.9933L59.7061 38.1458Z" fill="#5D4037"/>
<path d="M12.4502 55.6323L32.1001 55.9442L30.5583 50.2769C31.0709 49.5657 31.4157 48.755 31.5683 47.9019C31.7209 47.0487 31.6778 46.1737 31.4418 45.3383C30.9701 43.6707 28.7348 41.1726 27.3619 39.5762C24.0247 35.7121 21.124 37.4577 20.1982 38.4508C16.6674 42.2573 12.4502 55.6323 12.4502 55.6323Z" fill="#5D4037"/>
<path d="M22.1267 40.654V39.5762L22.8695 40.3761L23.6721 40.1354L23.2814 40.8133L23.658 41.193L23.0737 41.2506V41.9827L22.433 41.4675L21.912 41.8844L21.9718 41.2675L21.2115 40.9286L22.1267 40.654ZM30.4978 52.7648L29.8783 53.3105L29.308 53.019L29.5087 53.6461L28.7694 54.0155L29.4735 54.307L29.301 54.8494L29.8149 54.6596L30.3218 55.2764L30.3993 54.4697L31.4553 54.1308L30.4274 53.7003L30.4978 52.7648ZM23.313 48.7414L23.915 49.8939L24.5099 48.7923L25.6434 48.9821L25.0415 47.8229L25.8828 47.0501L24.6895 47.0907L24.4501 45.9654L23.8235 47.1314L22.2323 47.0128L23.1687 47.9449L22.3027 48.5855L23.313 48.7414ZM27.9985 42.081L28.2871 41.6133L27.745 41.6607L27.5584 41.2303L27.2663 41.698L26.791 41.5862L27.0762 41.9861L26.7242 42.3251L27.2979 42.2742L27.6148 42.8437L27.745 42.3149L28.1745 42.464L27.9985 42.081ZM18.7825 54.4257L19.0712 53.9613L18.5326 54.0054L18.3425 53.5749L18.0538 54.0461L17.5786 53.9308L17.8637 54.3308L17.5117 54.6697L18.0855 54.6223L18.4023 55.1917L18.5326 54.6596L18.9656 54.8121L18.7825 54.4257ZM22.0141 46.023L22.3027 45.5587L21.7606 45.6027L21.5741 45.1723L21.2854 45.6434L20.8066 45.5282L21.0918 45.9281L20.7398 46.2671L21.3136 46.2196L21.6304 46.7857L21.7606 46.2569L22.1936 46.4061L22.0141 46.023ZM18.515 47.2839L18.4164 46.9789L18.2263 47.2263L17.9553 47.1348L18.0538 47.4433L17.818 47.5992L18.1101 47.6365V47.9212L18.3108 47.6568L18.6945 47.7483L18.5044 47.4839L18.7438 47.3585L18.515 47.2839ZM27.6359 54.5545L27.5373 54.2494L27.3437 54.4969L27.0762 54.4087L27.1747 54.7138L26.9354 54.8731L27.2311 54.907V55.1917L27.4317 54.9307L27.8154 55.0188L27.6253 54.7545L27.8647 54.6324L27.6359 54.5545ZM30.3641 45.6943L30.614 45.4807L30.3007 45.4163L30.2725 45.1418L30.0226 45.3553L29.7762 45.213L29.8642 45.4841L29.6002 45.6129L29.9311 45.6807L30.005 46.0569L30.1775 45.779L30.3922 45.9383L30.3641 45.6943ZM25.4357 51.4192L25.6822 51.2056L25.3689 51.1412L25.3407 50.8667L25.0943 51.0802L24.8443 50.9379L24.9324 51.209L24.6683 51.3378L24.9992 51.4056L25.0732 51.7818L25.2457 51.5039L25.4604 51.6632L25.4357 51.4192ZM15.2904 53.2156L15.5369 53.0021L15.2236 52.9343L15.1989 52.6597L14.949 52.8767L14.7166 52.7309L14.8011 53.0055L14.5371 53.1309L14.868 53.2021L14.9455 53.5749L15.1144 53.3004L15.3292 53.4597L15.2904 53.2156Z" fill="white"/>
<path d="M25.3027 49.9448C26.1429 49.8703 26.9878 49.8567 27.8302 49.9041C28.2491 49.9313 28.6645 49.9787 29.0799 50.0363C29.284 50.0634 29.4917 50.0838 29.6994 50.1041C29.9169 50.1295 30.1367 50.1295 30.3542 50.1041C30.3542 50.1041 30.3788 50.1278 30.3542 50.1346C30.1534 50.1781 29.95 50.2098 29.7452 50.2295C29.5447 50.2414 29.3437 50.2414 29.1432 50.2295C28.7208 50.2024 28.2949 50.1584 27.8724 50.1312C27.017 50.0702 26.1616 50.0126 25.3027 50.0126C25.278 50.0194 25.278 49.9482 25.3027 49.9448Z" fill="#263238"/>
<path d="M23.3949 51.0057C24.0628 50.8184 24.7409 50.6667 25.4261 50.5515C25.7781 50.4972 26.1301 50.4599 26.461 50.4328L26.9574 50.3989C27.1405 50.3989 27.3094 50.3989 27.5066 50.3989C27.5277 50.3989 27.5312 50.426 27.5066 50.4294C27.3341 50.4464 27.1545 50.4904 26.9926 50.5142L26.4787 50.5921L25.4507 50.748C24.7655 50.843 24.0802 50.9492 23.3949 51.0667C23.3668 51.0667 23.3597 51.0158 23.3949 51.0057Z" fill="#263238"/>
<path d="M22.1092 38.2371C22.1937 38.576 23.8694 40.7623 25.4711 40.6877C25.9921 40.6606 25.978 37.9151 25.978 37.9151L26.0237 37.7117L26.6855 34.8679L23.2216 32.7325L22.7218 32.4512C22.7218 32.4512 22.595 33.2409 22.4472 34.2239C22.4472 34.2713 22.4472 34.3154 22.4472 34.3629C22.4472 34.4103 22.4261 34.4713 22.419 34.5256C22.3944 34.6713 22.3697 34.8205 22.3521 34.9696C22.3345 35.1187 22.3205 35.1967 22.3064 35.3085L22.2641 35.6678C22.1527 36.5199 22.101 37.3783 22.1092 38.2371Z" fill="#EB9481"/>
<path d="M22.4619 34.2205C22.7623 35.018 23.239 35.7432 23.8589 36.3459C24.4788 36.9487 25.2273 37.4147 26.0525 37.7117L26.6862 34.8679L23.2223 32.7325L22.7224 32.4512C22.7224 32.4512 22.5957 33.2375 22.4619 34.2205Z" fill="#263238"/>
<path d="M30.8505 30.2278C31.8819 35.2443 28.8756 36.4036 27.7527 36.6171C26.7353 36.8103 23.2362 37.3391 21.6732 32.4548C20.1102 27.5705 22.2083 25.5232 24.5176 24.9639C26.8268 24.4046 29.8226 25.2147 30.8505 30.2278Z" fill="#EB9481"/>
<path d="M29.3298 29.4617C29.2137 29.4871 29.0961 29.5064 28.9778 29.5193C28.8543 29.5584 28.7211 29.5584 28.5976 29.5193C28.5619 29.4986 28.5343 29.4671 28.5191 29.4297C28.5038 29.3923 28.5017 29.3512 28.5131 29.3126C28.5481 29.2394 28.6028 29.1766 28.6715 29.1307C28.7402 29.0848 28.8205 29.0575 28.9039 29.0516C29.07 29.0142 29.2447 29.0384 29.3932 29.1194C29.4237 29.1407 29.4473 29.1698 29.4614 29.2035C29.4755 29.2371 29.4795 29.2739 29.4729 29.3096C29.4663 29.3454 29.4494 29.3786 29.4241 29.4055C29.3988 29.4324 29.3661 29.4519 29.3298 29.4617Z" fill="#263238"/>
<path d="M25.6299 30.4888C25.7486 30.4714 25.8661 30.4476 25.982 30.4176C26.1121 30.4104 26.236 30.3615 26.334 30.2787C26.3606 30.2477 26.3752 30.2087 26.3752 30.1685C26.3752 30.1283 26.3606 30.0893 26.334 30.0583C26.2748 30.0014 26.2005 29.9612 26.1192 29.942C26.0378 29.9229 25.9527 29.9256 25.8728 29.9499C25.7033 29.9709 25.5485 30.0533 25.4398 30.1804C25.4155 30.211 25.4012 30.2479 25.3988 30.2865C25.3964 30.325 25.4061 30.3633 25.4265 30.3965C25.447 30.4297 25.4773 30.4562 25.5135 30.4727C25.5498 30.4891 25.5903 30.4947 25.6299 30.4888Z" fill="#263238"/>
<path d="M26.4115 31.1328C26.4115 31.1328 26.3868 31.1328 26.3903 31.1667C26.4537 31.5057 26.4678 31.9124 26.165 32.0717C26.165 32.0717 26.165 32.0954 26.165 32.092C26.5558 31.9802 26.5311 31.4446 26.4115 31.1328Z" fill="#263238"/>
<path d="M26.0385 30.8177C25.4576 30.8583 25.5844 31.9769 26.123 31.9362C26.6616 31.8955 26.5243 30.7838 26.0385 30.8177Z" fill="#263238"/>
<path d="M25.8165 30.9024C25.7214 30.9735 25.637 31.0956 25.5138 31.1227C25.3905 31.1498 25.2568 31.0447 25.1617 30.943C25.1406 30.943 25.1617 30.943 25.1617 30.943C25.1829 31.1566 25.292 31.3667 25.5349 31.3735C25.7778 31.3803 25.8869 31.1735 25.9186 30.9532C25.8975 30.9261 25.8552 30.8718 25.8165 30.9024Z" fill="#263238"/>
<path d="M28.6184 30.8074C28.6184 30.8074 28.6465 30.8074 28.6465 30.8345C28.6747 31.1734 28.7627 31.5768 29.1006 31.6581V31.6785C28.6958 31.6649 28.5832 31.1395 28.6184 30.8074Z" fill="#263238"/>
<path d="M28.9002 30.4143C29.474 30.316 29.6359 31.4312 29.1044 31.5193C28.5728 31.6074 28.4179 30.4991 28.9002 30.4143Z" fill="#263238"/>
<path d="M29.1497 30.4549C29.2518 30.5024 29.3574 30.5973 29.4666 30.5871C29.5757 30.5769 29.6707 30.4447 29.7341 30.3193C29.7341 30.3193 29.7341 30.3193 29.7552 30.3193C29.7904 30.5295 29.7552 30.7634 29.544 30.8312C29.3328 30.8989 29.192 30.7329 29.104 30.5261C29.0899 30.499 29.111 30.4346 29.1497 30.4549Z" fill="#263238"/>
<path d="M27.0662 34.0547C27.1578 34.1327 27.2528 34.2378 27.3831 34.2412C27.5175 34.2294 27.6481 34.1913 27.7668 34.1293C27.7668 34.1293 27.7879 34.1293 27.7668 34.1293C27.72 34.2006 27.6541 34.2584 27.576 34.2966C27.4979 34.3348 27.4106 34.3519 27.3232 34.3462C27.2559 34.3322 27.1938 34.3008 27.1436 34.2554C27.0934 34.2101 27.0569 34.1524 27.0381 34.0886C27.0381 34.0886 27.0381 34.0446 27.0662 34.0547Z" fill="#263238"/>
<path d="M28.4078 32.6309C28.4078 32.6309 28.5486 33.1359 28.5803 33.38C28.5803 33.4037 28.524 33.4207 28.436 33.4376C28.2233 33.5009 27.9966 33.507 27.7807 33.455C27.5647 33.403 27.3676 33.295 27.2109 33.1427C27.2109 33.1224 27.2109 33.0919 27.2461 33.1054C27.5957 33.28 27.9947 33.3406 28.3832 33.2783C28.3832 33.2105 28.1121 32.4174 28.1508 32.4106C28.3498 32.4044 28.5486 32.4237 28.7422 32.4682C28.4853 31.4039 28.0382 30.387 27.8094 29.3227C27.8094 29.2854 27.8587 29.2651 27.8727 29.299C28.3734 30.374 28.7602 31.4948 29.0274 32.6445C29.0591 32.78 28.5169 32.658 28.4078 32.6309Z" fill="#263238"/>
<path d="M28.4003 33.3496C28.2853 33.5652 28.1143 33.7486 27.9039 33.8817C27.7871 33.9517 27.6505 33.9849 27.5132 33.9766C27.2175 33.9529 27.1611 33.7021 27.1611 33.4784C27.1703 33.3633 27.1927 33.2496 27.228 33.1394C27.5851 33.3292 27.9962 33.4029 28.4003 33.3496Z" fill="#263238"/>
<path d="M27.9039 33.8817C27.7871 33.9517 27.6505 33.9849 27.5132 33.9766C27.2175 33.9529 27.1611 33.7021 27.1611 33.4784C27.3142 33.4538 27.4713 33.4805 27.6064 33.5539C27.7416 33.6272 27.8465 33.7429 27.9039 33.8817Z" fill="#FF9ABB"/>
<path d="M22.2542 32.8955C23.2505 32.8955 23.1836 30.6923 23.1836 30.6923C23.1836 30.6923 27.253 29.4416 27.1262 26.13C27.8475 27.3867 29.044 28.3275 30.4669 28.7569C30.4669 28.7569 29.7946 25.1979 26.7425 24.903C26.7425 24.903 22.8949 24.12 21.2474 27.1977C19.6 30.2754 21.5854 32.9057 22.2542 32.8955Z" fill="#263238"/>
<path d="M27.1052 25.8857C27.2267 26.383 27.2375 26.8993 27.1369 27.4009C27.0455 27.9111 26.844 28.3972 26.5455 28.8278C26.4717 28.9357 26.3905 29.0387 26.3026 29.1363L26.1794 29.2888C26.1336 29.3363 26.0844 29.3803 26.0351 29.4244C25.9858 29.4685 25.845 29.604 25.7464 29.6888L25.4226 29.9193C25.3698 29.9566 25.317 29.9938 25.2606 30.0277L25.0881 30.1226L24.7361 30.3091C24.4967 30.4108 24.2503 30.4989 24.0039 30.5836C24.2292 30.4514 24.4615 30.343 24.6798 30.2108L25.0037 30.0006L25.1621 29.8955C25.2149 29.8583 25.2606 29.8176 25.3099 29.7769L25.6021 29.5396C25.6971 29.4549 25.7816 29.3634 25.8696 29.2753L26.0034 29.1431L26.1196 28.9973C26.1997 28.9035 26.2738 28.805 26.3413 28.7024C26.6269 28.2884 26.8354 27.8296 26.9574 27.3466C27.0204 27.1073 27.064 26.8637 27.0876 26.6179C27.1137 26.3747 27.1196 26.1299 27.1052 25.8857Z" fill="#263238"/>
<path d="M20.7015 29.8821L20.4551 30.3634L22.1025 31.5226L22.6306 30.4414L20.7015 29.8821ZM21.9864 31.0277L20.8493 30.3159L20.9021 30.2041L22.18 30.6481L21.9864 31.0277Z" fill="#5D4037"/>
<path d="M20.7721 29.0312L20.7334 29.5667L22.7153 30.0446L22.7822 28.8481L20.7721 29.0312ZM22.4126 29.6243L21.0784 29.3803V29.2549L22.4372 29.204L22.4126 29.6243Z" fill="#5D4037"/>
<path d="M23.0176 32.465C23.0176 32.465 21.6834 30.9974 20.9829 31.4719C20.2824 31.9464 21.4053 34.1564 22.3171 34.3767C22.4321 34.4136 22.5537 34.4276 22.6745 34.4178C22.7953 34.4081 22.9128 34.3747 23.0198 34.3199C23.1268 34.265 23.2211 34.1898 23.297 34.0988C23.3729 34.0077 23.4287 33.9028 23.4612 33.7903L23.0176 32.465Z" fill="#EB9481"/>
<path d="M21.3213 32.0988C21.3213 32.0988 21.3213 32.1157 21.3213 32.1191C21.6185 32.2251 21.8892 32.39 22.116 32.6031C22.3428 32.8162 22.5206 33.0728 22.6379 33.3563C22.5955 33.3008 22.5412 33.2548 22.4785 33.2215C22.4159 33.1883 22.3465 33.1685 22.2752 33.1637C22.2038 33.1589 22.1322 33.169 22.0654 33.1935C21.9985 33.218 21.938 33.2562 21.888 33.3054C21.888 33.3054 21.888 33.3393 21.9092 33.3359C22.013 33.2911 22.1287 33.2785 22.2403 33.2997C22.3519 33.321 22.4539 33.3751 22.5322 33.4546C22.6654 33.5891 22.7834 33.7368 22.8843 33.8952C22.916 33.9461 23.0145 33.8952 22.9864 33.8478C22.9019 33.0716 22.1732 32.0852 21.3213 32.0988Z" fill="#263238"/>
<path d="M19.0292 39.5797C14.5514 47.0163 7.85948 64.0859 6.64852 66.5264C5.82831 68.1838 14.826 72.5529 15.2097 71.3463C15.6955 69.804 21.9404 49.9211 22.3488 41.0507C22.5388 36.9426 20.4619 37.2002 19.0292 39.5797Z" fill="#EB9481"/>
<path d="M11.5487 75.1423C12.0239 74.7423 12.2527 74.9796 12.038 76.0371C11.8233 77.0947 10.0843 81.1214 11.5909 81.579C13.0976 82.0366 15.4632 76.3456 15.6814 74.5593C15.8997 72.773 15.5618 69.814 15.5618 69.814C14.8683 70.8376 12.9568 73.156 11.5487 75.1423Z" fill="#EB9481"/>
<path d="M14.1888 81.3588L2.92411 79.4065C2.57208 79.3793 2.35735 79.1556 2.41719 78.9048L3.44862 74.4713C3.50506 74.3402 3.6053 74.2311 3.73347 74.1611C3.86164 74.0911 4.0104 74.0643 4.15619 74.0849L15.4209 76.0271C15.773 76.0576 15.9877 76.2813 15.9278 76.5287L14.8964 80.9622C14.8434 81.0963 14.7442 81.2088 14.6154 81.281C14.4867 81.3531 14.3361 81.3806 14.1888 81.3588Z" fill="#A6A6A6"/>
<path d="M14.3194 80.8367L3.03354 78.8843C2.68152 78.8538 2.4703 78.6301 2.52662 78.3827L3.56157 73.9492C3.61394 73.8154 3.71245 73.703 3.84062 73.6308C3.96879 73.5586 4.11884 73.531 4.26562 73.5526L15.5515 75.5049C15.9035 75.5321 16.1147 75.7558 16.0584 76.0032L15.034 80.4401C14.9802 80.5751 14.8798 80.6881 14.7497 80.7603C14.6196 80.8325 14.4677 80.8595 14.3194 80.8367Z" fill="#C7C7C7"/>
<path d="M14.1083 79.4302C13.8478 79.3353 13.6014 79.4302 13.5592 79.6403C13.5535 79.7608 13.5895 79.8797 13.6615 79.9785C13.7334 80.0772 13.8373 80.1502 13.957 80.186C14.2175 80.2809 14.4639 80.186 14.5061 79.9793C14.5126 79.8582 14.477 79.7385 14.4049 79.6391C14.3329 79.5396 14.2286 79.4661 14.1083 79.4302Z" fill="#263238"/>
<path d="M7.25099 65.7466C4.95228 68.7294 2.91759 72.2409 2.8683 76.1219C2.85339 76.553 2.98844 76.9765 3.25201 77.3252C3.1992 79.0606 4.0335 79.6097 4.0335 79.6097C4.49817 81.2401 5.44159 81.6875 5.44159 81.6875C5.44159 81.6875 5.57536 83.0874 6.59975 83.067C7.62413 83.0467 8.18737 80.752 9.06391 79.0776C11.1162 75.2339 14.8476 70.8682 15.5517 69.8174L7.25099 65.7466Z" fill="#EB9481"/>
<path d="M7.98267 74.139C7.37037 75.2576 6.83759 76.415 6.38801 77.6031C5.97874 78.9352 5.67282 80.2948 5.47275 81.6705C5.47275 81.6795 5.46904 81.6881 5.46244 81.6945C5.45584 81.7008 5.44688 81.7044 5.43755 81.7044C5.42821 81.7044 5.41926 81.7008 5.41265 81.6945C5.40605 81.6881 5.40234 81.6795 5.40234 81.6705C5.5144 78.9827 6.3885 76.3757 7.92987 74.1322C7.96507 74.061 8.02844 74.0848 7.98267 74.139Z" fill="#263238"/>
<path d="M5.75401 72.6104C5.25414 73.7526 4.38816 75.7626 4.07486 79.6131C4.07486 79.6131 4.05374 79.6131 4.05022 79.6131C3.91326 77.1693 4.4836 74.7368 5.69769 72.5867C5.73641 72.5189 5.78922 72.5324 5.75401 72.6104Z" fill="#263238"/>
<path d="M4.54429 71.8105C3.76984 73.7832 3.5375 75.1221 3.26292 77.3151H3.23828C3.28052 74.7899 3.5903 73.8747 4.4774 71.7732C4.50908 71.7122 4.57245 71.7326 4.54429 71.8105Z" fill="#263238"/>
</svg>
